<svg width="74" height="105" viewBox="0 0 74 105" fill="none" xmlns="http://www.w3.org/2000/svg">
<path d="M46.0792 1.2899C45.3891 2.02064 43.7537 3.5681 42.4485 4.75735C38.0976 8.68332 37.2124 10.0875 37.0923 13.297C37.0023 15.9048 37.6325 17.8821 39.2678 20.1317C39.7029 20.7334 40.063 21.192 40.063 21.1346C40.063 21.0917 39.7929 20.5328 39.4628 19.9024C38.2026 17.4952 37.8275 14.5723 38.5176 12.4947C39.1628 10.546 40.108 9.37108 43.3037 6.5484C43.9788 5.96093 44.804 5.14422 45.149 4.75735L45.7942 4.04094L45.7042 7.04988C45.6591 9.04152 45.5541 10.417 45.3891 11.1335C44.834 13.555 43.7537 15.4749 41.7883 17.5812C40.363 19.1143 39.958 19.9884 40.348 20.7048C40.408 20.8337 40.5131 21.3782 40.5731 21.894L40.6631 22.8397L39.8079 23.3842C36.9123 25.2182 34.8719 27.869 34.0467 30.8779C33.8217 31.6803 33.7316 32.454 33.7316 33.7006C33.7166 36.3513 34.2267 38.5579 35.517 41.3376L36.1922 42.7991L35.9521 43.9453C35.7121 45.1059 35.637 48.5591 35.8471 49.4618C35.9221 49.82 36.0121 49.8916 36.3872 49.8916H36.8373L36.9423 48.0432C37.3324 41.4522 39.6129 37.6265 44.969 34.5746C49.0949 32.2248 50.3101 30.9066 53.0557 25.8057C55.2162 21.7508 55.9063 20.6761 57.5716 18.6272L58.5168 17.4666L57.1816 18.0111C55.0211 18.8994 51.9155 19.7878 48.1647 20.5902C44.5639 21.3496 42.9286 21.7937 41.6833 22.3955C41.2932 22.5818 40.9332 22.7394 40.8881 22.7394C40.8431 22.7394 40.8281 22.1663 40.8731 21.4499C40.9482 19.9167 40.9632 19.8881 43.2887 17.5669C44.5489 16.3203 45.074 15.6612 45.5091 14.8445C46.4693 13.0248 46.5443 12.4947 46.4393 8.98421C46.3343 5.6887 46.5143 3.53945 47.1145 1.14661C47.2645 0.530499 47.3845 0.0146751 47.3695 0.000347137C47.3545 -0.0139809 46.7694 0.573483 46.0792 1.2899ZM52.9957 23.7567C49.9801 29.0582 47.8796 31.3078 43.0636 34.417C42.1184 35.0331 41.0082 35.8069 40.6031 36.1221C39.1178 37.297 37.4224 39.6182 36.7773 41.3519C36.6273 41.7674 36.4622 42.054 36.4172 41.9824C36.1772 41.6242 35.532 38.7012 35.382 37.34C34.8869 32.8266 36.6423 28.8719 40.333 26.2212C42.4485 24.6881 44.3689 23.986 48.2397 23.3125C49.89 23.026 52.5156 22.2952 53.6408 21.8224C53.8959 21.7221 54.1059 21.6505 54.1359 21.6648C54.1509 21.6791 53.6408 22.6248 52.9957 23.7567Z" fill="#151618"/>
<path d="M19.681 4.86824C20.5758 8.09657 20.8442 12.3293 20.4117 16.2894C19.8749 21.2251 20.3223 22.7173 23.5136 26.7779C24.3786 27.8683 25.3479 29.2888 25.6909 29.9201C26.6602 31.7997 27.1822 34.4685 27.1971 37.6824V39.0168L26.8392 38.8733C26.0041 38.572 24.4979 38.4429 20.71 38.3711C18.5029 38.3281 16.2212 38.2277 15.6396 38.1703C15.0729 38.0985 14.5808 38.0698 14.5659 38.0842C14.5361 38.0985 14.8343 38.3281 15.237 38.6007C16.9221 39.7629 18.6222 41.2695 20.5907 43.35C21.7539 44.5695 23.1408 45.9183 23.6926 46.3344C26.0488 48.1279 28.748 49.1753 32.0139 49.5484C33.3561 49.7062 32.8192 49.2183 30.5525 48.2714C26.9436 46.7505 25.1391 45.5165 22.3653 42.6899C21.3214 41.6282 20.0538 40.4947 19.5617 40.1647L18.6669 39.5907H20.4267C25.0496 39.5907 27.6594 40.4516 29.8814 42.7043C30.985 43.8091 31.7753 45.1865 32.178 46.6644C32.2973 47.1379 32.4315 47.554 32.4762 47.597C32.6254 47.7261 32.5806 45.9039 32.4166 44.8996C32.0736 42.8191 30.3437 40.5234 28.3603 39.519L27.4953 39.0886V36.7211C27.4953 32.0149 27.0629 30.3936 24.7961 26.7205C21.7986 21.8421 21.3065 19.9194 21.396 13.1615C21.4258 11.0666 21.4706 9.34486 21.4855 9.35921C21.4855 9.37356 21.7986 9.77531 22.1565 10.2488C22.5294 10.7223 23.8566 12.1427 25.1242 13.4054C28.1962 16.4615 29.3744 18.2264 30.1051 20.8808C30.9253 23.7934 30.2542 27.8683 28.3156 31.7997C27.9576 32.5315 27.6892 33.1341 27.7041 33.1341C27.7339 33.1341 27.9875 32.7897 28.2857 32.3593C30.627 28.9731 31.8052 25.1565 31.6262 21.5838C31.5218 19.6325 31.1192 18.1116 30.2691 16.4185C29.4042 14.668 28.405 13.4341 25.5119 10.5501C23.2601 8.29745 21.7092 6.63306 20.0837 4.7965L19.4573 4.07909L19.681 4.86824Z" fill="#151618"/>
<path d="M46.5727 40.0355C43.1472 40.7344 40.8185 43.6442 40.8034 47.21C40.8034 47.9232 40.7734 47.9802 40.3377 48.1228C39.5565 48.3796 40.1274 48.5079 42.5462 48.6078C46.0017 48.7504 48.1201 48.3653 49.923 47.2528C50.4188 46.9532 51.6658 45.9976 52.7024 45.1275C54.8058 43.3874 55.8875 42.6457 57.6604 41.7471L58.8473 41.1481L57.4049 41.0482C56.6237 41.0055 55.2265 40.82 54.295 40.6631C53.3635 40.5062 51.8911 40.2495 51.0198 40.1069C49.1868 39.7931 47.8647 39.7645 46.5727 40.0355ZM51.5306 41.8185C52.2667 41.9896 53.4086 42.175 54.0396 42.2178L55.2114 42.3177L53.5738 43.5728C51.0799 45.4841 49.4272 46.3542 47.3088 46.8677C46.2271 47.1387 41.3894 47.8376 41.2842 47.7377C41.149 47.6094 41.5847 46.2829 42.1105 45.2417C43.027 43.4302 44.7548 42.1323 46.9332 41.6045C48.045 41.3335 49.7878 41.4191 51.5306 41.8185Z" fill="#151618"/>
<path d="M13.0565 55.6404C12.876 63.3893 13.2971 66.0107 15.3276 69.9139C16.3955 71.9592 18.1251 74.3501 19.3584 75.4735C19.6592 75.7472 19.8999 76.0065 19.8999 76.0497C19.8999 76.1073 16.1548 76.1217 11.5975 76.0929C7.02522 76.0641 3.12973 76.0929 2.9342 76.1361C2.75371 76.1793 2.51307 76.3809 2.42282 76.5682C2.28746 76.8707 2.3025 76.9715 2.52811 77.2163C2.79884 77.5044 2.96428 77.5044 36.4745 77.5044C59.4113 77.5044 70.2405 77.4612 70.4511 77.3604C70.8421 77.1587 70.8421 76.4098 70.4511 76.2081C70.2555 76.1217 67.1572 76.0641 61.4117 76.0641H52.6732L53.5906 75.0126C56.2077 72.06 57.9073 68.8193 59.0203 64.6856C59.3361 63.5477 59.3662 63.058 59.4113 57.2968L59.4865 51.1466H36.3241H13.1617L13.0565 55.6404Z" fill="#151618"/>
<path d="M6.81415 79.4547C11.8963 81.7458 19.7301 83.6127 27.0377 84.2774C28.3308 84.4047 28.9172 84.5037 28.6916 84.5603C28.3759 84.6451 28.3608 84.6593 28.6164 84.6734C28.7818 84.6876 29.8043 84.7583 30.8719 84.8431C36.375 85.225 48.1633 84.9987 47.8325 84.5037C47.7874 84.433 47.8025 84.4047 47.8927 84.4471C47.9679 84.4896 48.2385 84.4754 48.4791 84.4047C48.9001 84.2916 48.9001 84.2916 48.3137 84.2633C47.9528 84.2491 48.7197 84.0794 50.1932 83.839C54.7792 83.1036 58.5532 82.2125 61.6507 81.1377C63.4249 80.5154 66.8682 79.1011 67.1088 78.8748C67.1839 78.8041 55.4408 78.7475 36.2848 78.7617L5.31055 78.7758L6.81415 79.4547Z" fill="#151618"/>
<path d="M5.82715 100.451H5.625C5.61914 100.451 5.60156 100.454 5.57227 100.459C5.54883 100.465 5.52246 100.474 5.49316 100.486C5.46387 100.492 5.43457 100.498 5.40527 100.503C5.37598 100.509 5.3584 100.512 5.35254 100.512C5.05371 100.542 4.75195 100.559 4.44727 100.565C4.14258 100.577 3.83789 100.583 3.5332 100.583C3.46875 100.583 3.38672 100.58 3.28711 100.574C3.19336 100.574 3.10254 100.562 3.01465 100.539C2.92676 100.509 2.85059 100.468 2.78613 100.416C2.72168 100.363 2.68945 100.287 2.68945 100.187C2.68945 100.111 2.70703 100.035 2.74219 99.9585C2.77734 99.8823 2.82715 99.8296 2.8916 99.8003C2.9502 99.7944 3.05273 99.7886 3.19922 99.7827C3.3457 99.7769 3.49805 99.771 3.65625 99.7651C3.82031 99.7534 3.97559 99.7446 4.12207 99.7388C4.26855 99.7271 4.37109 99.7153 4.42969 99.7036C4.46484 99.7036 4.51172 99.7036 4.57031 99.7036C4.62891 99.6978 4.6875 99.689 4.74609 99.6772C4.81055 99.6597 4.86621 99.6392 4.91309 99.6157C4.96582 99.5923 5.00684 99.5601 5.03613 99.519C5.10645 99.3726 5.1416 99.2173 5.1416 99.0532V98.7808V98.0776C5.1416 98.0601 5.14453 98.019 5.15039 97.9546C5.16211 97.8901 5.1709 97.8198 5.17676 97.7437C5.18848 97.6675 5.2002 97.5942 5.21191 97.5239C5.22363 97.4536 5.22949 97.4097 5.22949 97.3921C5.25879 96.7827 5.27637 96.1704 5.28223 95.5552C5.28809 94.9399 5.29102 94.3276 5.29102 93.7183C5.29102 93.4604 5.28809 93.2085 5.28223 92.9624C5.27637 92.7163 5.27344 92.4702 5.27344 92.2241C5.27344 92.1362 5.27344 91.9927 5.27344 91.7935C5.2793 91.5884 5.28223 91.3774 5.28223 91.1606C5.28223 90.938 5.28223 90.73 5.28223 90.5366C5.28809 90.3374 5.29102 90.1997 5.29102 90.1235C5.26172 90.0063 5.2207 89.9097 5.16797 89.8335C5.12109 89.7515 5.05664 89.6724 4.97461 89.5962C4.94531 89.5903 4.89258 89.5845 4.81641 89.5786C4.74609 89.5669 4.66992 89.5581 4.58789 89.5522C4.51172 89.5405 4.43555 89.5317 4.35938 89.5259C4.28906 89.52 4.23926 89.5171 4.20996 89.5171C4.19824 89.5171 4.16895 89.5229 4.12207 89.5347C4.08105 89.5405 4.03418 89.5493 3.98145 89.561C3.93457 89.5669 3.8877 89.5757 3.84082 89.5874C3.79395 89.5933 3.76465 89.5962 3.75293 89.5962C3.71777 89.6021 3.64453 89.605 3.5332 89.605C3.42773 89.605 3.31348 89.605 3.19043 89.605C3.07324 89.605 2.96191 89.605 2.85645 89.605C2.75098 89.605 2.6748 89.6021 2.62793 89.5962C2.54004 89.6313 2.44336 89.6577 2.33789 89.6753C2.23242 89.687 2.13281 89.7251 2.03906 89.7896C2.03906 89.8013 2.02148 89.8247 1.98633 89.8599C1.95117 89.895 1.92773 89.9185 1.91602 89.9302C1.86914 89.9829 1.80469 90.0562 1.72266 90.1499C1.64648 90.2378 1.57031 90.3286 1.49414 90.4224C1.41797 90.5161 1.34766 90.5981 1.2832 90.6685C1.22461 90.7388 1.19238 90.7769 1.18652 90.7827C1.14551 90.8354 1.10449 90.9087 1.06348 91.0024C1.02832 91.0903 0.987305 91.1782 0.94043 91.2661C0.893555 91.3481 0.837891 91.4214 0.773438 91.4858C0.708984 91.5503 0.629883 91.5825 0.536133 91.5825C0.46582 91.5825 0.416016 91.5649 0.386719 91.5298C0.357422 91.4888 0.333984 91.4419 0.316406 91.3892C0.316406 91.3716 0.316406 91.3452 0.316406 91.3101C0.316406 91.269 0.313477 91.228 0.307617 91.187C0.307617 91.1401 0.307617 91.0962 0.307617 91.0552C0.307617 91.0083 0.307617 90.9761 0.307617 90.9585C0.307617 90.9409 0.307617 90.9146 0.307617 90.8794C0.307617 90.8384 0.307617 90.8003 0.307617 90.7651C0.313477 90.7241 0.316406 90.689 0.316406 90.6597C0.316406 90.6245 0.316406 90.604 0.316406 90.5981C0.322266 90.5806 0.333984 90.5366 0.351562 90.4663C0.375 90.3901 0.398438 90.311 0.421875 90.229C0.445312 90.147 0.46582 90.0708 0.483398 90.0005C0.506836 89.9302 0.524414 89.8862 0.536133 89.8687C0.536133 89.8511 0.541992 89.813 0.553711 89.7544C0.56543 89.6958 0.577148 89.6343 0.588867 89.5698C0.606445 89.4995 0.621094 89.438 0.632812 89.3853C0.644531 89.3267 0.65332 89.2886 0.65918 89.271C0.65918 89.2593 0.667969 89.2271 0.685547 89.1743C0.708984 89.1216 0.732422 89.063 0.755859 88.9985C0.779297 88.9341 0.799805 88.8755 0.817383 88.8228C0.84082 88.77 0.852539 88.7378 0.852539 88.7261C0.870117 88.6792 0.887695 88.6265 0.905273 88.5679C0.928711 88.5034 0.955078 88.4448 0.984375 88.3921C1.01953 88.3394 1.06055 88.2954 1.10742 88.2603C1.1543 88.2192 1.20996 88.1987 1.27441 88.1987C1.37402 88.1987 1.45312 88.2251 1.51172 88.2778C1.57617 88.3306 1.63477 88.3892 1.6875 88.4536C1.74023 88.5181 1.79297 88.5854 1.8457 88.6558C1.89844 88.7202 1.96289 88.7642 2.03906 88.7876C2.16211 88.7876 2.29102 88.7847 2.42578 88.7788C2.56055 88.7729 2.69531 88.77 2.83008 88.77C3.08203 88.77 3.33105 88.7759 3.57715 88.7876C3.82324 88.7993 4.06641 88.8257 4.30664 88.8667C4.30664 88.8667 4.31836 88.8726 4.3418 88.8843C4.36523 88.8901 4.38867 88.8989 4.41211 88.9106C4.44141 88.9165 4.46777 88.9224 4.49121 88.9282C4.52051 88.9341 4.53809 88.937 4.54395 88.937H4.8252C4.97754 88.937 5.11523 88.9224 5.23828 88.8931C5.36719 88.8638 5.51074 88.8491 5.66895 88.8491C5.69238 88.8491 5.72461 88.8491 5.76562 88.8491C5.8125 88.8491 5.85938 88.8491 5.90625 88.8491C5.95312 88.8491 5.99414 88.8521 6.0293 88.8579C6.06445 88.8579 6.08789 88.8608 6.09961 88.8667C6.12305 88.8667 6.16992 88.8726 6.24023 88.8843C6.31641 88.8901 6.39844 88.8989 6.48633 88.9106C6.57422 88.9165 6.65332 88.9224 6.72363 88.9282C6.7998 88.9341 6.84961 88.937 6.87305 88.937C6.91992 88.9194 6.97559 88.9048 7.04004 88.8931C7.11035 88.8813 7.20117 88.8726 7.3125 88.8667C7.42969 88.8608 7.57617 88.8579 7.75195 88.8579C7.92773 88.8521 8.14746 88.8491 8.41113 88.8491L10.002 88.8667C10.1016 88.8667 10.2041 88.8345 10.3096 88.77C10.415 88.6997 10.5205 88.6206 10.626 88.5327C10.7314 88.439 10.834 88.3481 10.9336 88.2603C11.0391 88.1724 11.1416 88.1108 11.2412 88.0757H11.3467C11.5166 88.0757 11.6367 88.1665 11.707 88.3481C11.7129 88.4185 11.7246 88.5503 11.7422 88.7437C11.7598 88.9312 11.7773 89.1304 11.7949 89.3413C11.8184 89.5522 11.8418 89.7515 11.8652 89.939C11.8887 90.1265 11.9062 90.2583 11.918 90.3345C11.918 90.3462 11.9209 90.3667 11.9268 90.396C11.9326 90.4253 11.9385 90.4604 11.9443 90.5015C11.9561 90.5366 11.9648 90.5718 11.9707 90.6069C11.9766 90.6362 11.9795 90.6538 11.9795 90.6597V90.7915C11.9795 90.9438 11.9736 91.0815 11.9619 91.2046C11.9502 91.3276 11.9355 91.4683 11.918 91.6265C11.8945 91.6733 11.8652 91.7056 11.8301 91.7231C11.8008 91.7349 11.7715 91.7407 11.7422 91.7407C11.7246 91.7407 11.707 91.7319 11.6895 91.7144C11.6719 91.7085 11.6572 91.6997 11.6455 91.688C11.5576 91.647 11.4814 91.5884 11.417 91.5122C11.3584 91.436 11.3057 91.354 11.2588 91.2661C11.2178 91.1782 11.1797 91.0874 11.1445 90.9937C11.1094 90.894 11.0742 90.8032 11.0391 90.7212C10.9395 90.4692 10.7754 90.2671 10.5469 90.1147C10.3242 89.9624 10.0928 89.8335 9.85254 89.728C9.7002 89.6636 9.55078 89.6313 9.4043 89.6313C9.25781 89.6313 9.09961 89.6196 8.92969 89.5962C8.91797 89.5962 8.87402 89.5845 8.79785 89.561C8.72754 89.5317 8.68066 89.5171 8.65723 89.5171H8.26172H7.81348C7.7666 89.5171 7.69922 89.5288 7.61133 89.5522C7.52344 89.5698 7.47656 89.5845 7.4707 89.5962C7.45312 89.6196 7.43262 89.6431 7.40918 89.6665C7.36816 89.7192 7.3418 89.7603 7.33008 89.7896C7.30664 89.8306 7.28027 89.8862 7.25098 89.9565C7.22168 90.021 7.20703 90.0562 7.20703 90.062C7.20117 90.0796 7.19531 90.1118 7.18945 90.1587C7.18359 90.1997 7.17773 90.2437 7.17188 90.2905C7.17188 90.3374 7.16895 90.3843 7.16309 90.4312C7.15723 90.4722 7.15137 90.5015 7.14551 90.519C7.14551 90.6128 7.14844 90.7739 7.1543 91.0024C7.16016 91.231 7.16309 91.4771 7.16309 91.7407C7.16309 92.0044 7.16016 92.2534 7.1543 92.4878C7.14844 92.7163 7.14551 92.8716 7.14551 92.9536C7.14551 93.2524 7.12207 93.5454 7.0752 93.8325C7.03418 94.1138 7.01367 94.4038 7.01367 94.7026C7.01367 95.0249 7.02246 95.3472 7.04004 95.6694C7.06348 95.9858 7.0752 96.311 7.0752 96.645C7.0752 97.0493 7.06348 97.4565 7.04004 97.8667C7.02246 98.2769 7.01367 98.687 7.01367 99.0972C7.01367 99.2202 7.04004 99.3169 7.09277 99.3872C7.15137 99.4575 7.22461 99.5103 7.3125 99.5454C7.40039 99.5806 7.49707 99.604 7.60254 99.6157C7.71387 99.6274 7.81934 99.6362 7.91895 99.6421C7.96582 99.6479 8.03906 99.6538 8.13867 99.6597C8.24414 99.6655 8.35254 99.6714 8.46387 99.6772C8.58105 99.6831 8.68945 99.689 8.78906 99.6948C8.88867 99.7007 8.95898 99.7036 9 99.7036C9.11133 99.7446 9.19336 99.8091 9.24609 99.897C9.30469 99.9849 9.33398 100.082 9.33398 100.187C9.33398 100.322 9.2959 100.427 9.21973 100.503C9.14355 100.574 9.04688 100.647 8.92969 100.723H8.91211C8.69531 100.723 8.49316 100.706 8.30566 100.67C8.12402 100.641 7.93066 100.612 7.72559 100.583C7.09863 100.495 6.46582 100.451 5.82715 100.451ZM12.6738 100.556C12.6738 100.533 12.6562 100.5 12.6211 100.459C12.5918 100.413 12.5742 100.375 12.5684 100.345V100.31V100.301C12.5801 100.278 12.6064 100.243 12.6475 100.196C12.6885 100.149 12.7324 100.102 12.7793 100.055C12.832 100.002 12.8789 99.9556 12.9199 99.9146C12.9668 99.8735 12.999 99.8442 13.0166 99.8267C13.0283 99.8149 13.0664 99.8032 13.1309 99.7915C13.2012 99.7739 13.251 99.7651 13.2803 99.7651H13.9043C13.9219 99.7651 13.9453 99.7622 13.9746 99.7563C14.0098 99.7446 14.042 99.7358 14.0713 99.73C14.1064 99.7183 14.1357 99.7065 14.1592 99.6948C14.1885 99.6831 14.2031 99.6772 14.2031 99.6772C14.2852 99.6362 14.332 99.5718 14.3438 99.4839C14.3613 99.3901 14.3701 99.3022 14.3701 99.2202V99.0796C14.3701 98.8745 14.3643 98.6812 14.3525 98.4995C14.3467 98.312 14.3438 98.1157 14.3438 97.9106V97.8491C14.3438 97.8315 14.3467 97.7993 14.3525 97.7524C14.3584 97.7056 14.3643 97.6558 14.3701 97.603C14.3818 97.5444 14.3936 97.4917 14.4053 97.4448C14.417 97.3979 14.4258 97.3657 14.4316 97.3481V93.5161C14.4316 93.3989 14.4111 93.3052 14.3701 93.2349C14.3291 93.1646 14.2764 93.1118 14.2119 93.0767C14.1475 93.0356 14.0713 93.0093 13.9834 92.9976C13.9014 92.9858 13.8135 92.98 13.7197 92.98H13.3594C13.1953 92.98 13.0576 92.9595 12.9463 92.9185C12.835 92.8774 12.7793 92.7778 12.7793 92.6196C12.7793 92.5669 12.7793 92.52 12.7793 92.479C12.7852 92.438 12.7998 92.3823 12.8232 92.312C13.1045 92.3237 13.3799 92.3149 13.6494 92.2856C13.9189 92.2563 14.1914 92.2417 14.4668 92.2417H14.6953C14.7188 92.2476 14.7656 92.2534 14.8359 92.2593C14.9121 92.2651 14.9883 92.271 15.0645 92.2769C15.1465 92.2827 15.2227 92.2886 15.293 92.2944C15.3633 92.3003 15.4131 92.3062 15.4424 92.312H19.5732C19.749 92.312 19.875 92.3589 19.9512 92.4526C20.0273 92.5405 20.083 92.6519 20.1182 92.7866V93.2876V93.8062C20.1182 93.8413 20.1123 93.9058 20.1006 93.9995C20.0889 94.0874 20.0742 94.1841 20.0566 94.2896C20.0449 94.3892 20.0303 94.4888 20.0127 94.5884C20.001 94.6821 19.9922 94.7495 19.9863 94.7905C19.9746 94.8081 19.9541 94.8345 19.9248 94.8696C19.8955 94.8989 19.875 94.9136 19.8633 94.9136C19.8633 94.9253 19.8574 94.9312 19.8457 94.9312H19.8369H19.8105C19.793 94.9312 19.7842 94.9253 19.7842 94.9136C19.6846 94.8433 19.6084 94.7642 19.5557 94.6763C19.5029 94.5825 19.459 94.4858 19.4238 94.3862C19.3887 94.2866 19.3564 94.187 19.3271 94.0874C19.2979 93.9878 19.2539 93.894 19.1953 93.8062C19.1836 93.7827 19.1455 93.7446 19.0811 93.6919C19.0225 93.6333 18.9902 93.6011 18.9844 93.5952C18.9727 93.5835 18.9463 93.5513 18.9053 93.4985C18.8701 93.4458 18.8291 93.3901 18.7822 93.3315C18.7412 93.2671 18.7002 93.2085 18.6592 93.1558C18.624 93.103 18.6006 93.0708 18.5889 93.0591C18.5654 93.0063 18.5391 92.98 18.5098 92.98C18.5039 92.98 18.4834 92.9771 18.4482 92.9712C18.4189 92.9653 18.3838 92.9595 18.3428 92.9536C18.3076 92.9419 18.2725 92.9331 18.2373 92.9272C18.208 92.9214 18.1934 92.9155 18.1934 92.9097C18.1758 92.9097 18.1436 92.9038 18.0967 92.8921C18.0498 92.8804 17.9971 92.8687 17.9385 92.8569C17.8857 92.8452 17.8359 92.8335 17.7891 92.8218C17.7422 92.8042 17.7129 92.7925 17.7012 92.7866H17.6572C17.6338 92.7866 17.6016 92.7954 17.5605 92.813C17.5195 92.8247 17.4902 92.8306 17.4727 92.8306H17.4463C17.4287 92.8247 17.3789 92.8188 17.2969 92.813C17.2207 92.8071 17.1357 92.8042 17.042 92.8042C16.9482 92.7983 16.8604 92.7954 16.7783 92.7954C16.7021 92.7896 16.6553 92.7866 16.6377 92.7866H16.6113C16.5059 92.7866 16.418 92.8071 16.3477 92.8481C16.2773 92.8892 16.2188 92.9419 16.1719 93.0063C16.1309 93.0708 16.0928 93.144 16.0576 93.2261C16.0283 93.3022 15.999 93.3784 15.9697 93.4546C15.9639 93.519 15.9521 93.6245 15.9346 93.771C15.9229 93.9175 15.9082 94.0728 15.8906 94.2368C15.8789 94.4009 15.8672 94.5562 15.8555 94.7026C15.8438 94.8491 15.8379 94.9517 15.8379 95.0103V95.0806V95.1245C15.8379 95.1538 15.8408 95.2036 15.8467 95.2739C15.8525 95.3442 15.8584 95.4204 15.8643 95.5024C15.8701 95.5786 15.876 95.6548 15.8818 95.731C15.8936 95.8013 15.9023 95.8481 15.9082 95.8716C15.9492 95.9243 15.9961 95.9771 16.0488 96.0298C16.1074 96.0825 16.1689 96.1177 16.2334 96.1353H16.7168C16.916 96.1353 17.0889 96.1323 17.2354 96.1265C17.3877 96.1206 17.5693 96.103 17.7803 96.0737C17.7861 96.062 17.7949 96.0415 17.8066 96.0122C17.8184 95.9829 17.833 95.9536 17.8506 95.9243C17.8682 95.895 17.8828 95.8687 17.8945 95.8452C17.9062 95.8218 17.915 95.8071 17.9209 95.8013C17.9443 95.7603 17.9736 95.7017 18.0088 95.6255C18.0439 95.5435 18.0791 95.4644 18.1143 95.3882C18.1494 95.3062 18.1787 95.2358 18.2021 95.1772C18.2314 95.1187 18.249 95.0864 18.2549 95.0806C18.2666 95.0571 18.2783 95.0073 18.29 94.9312C18.3018 94.8491 18.3135 94.8022 18.3252 94.7905C18.3721 94.7378 18.4336 94.7026 18.5098 94.6851C18.5859 94.6675 18.6621 94.6587 18.7383 94.6587C18.8203 94.6587 18.8701 94.6909 18.8877 94.7554C18.9111 94.814 18.9229 94.8813 18.9229 94.9575V95.1772V95.2827C18.9229 95.3354 18.917 95.3882 18.9053 95.4409C18.8936 95.4878 18.873 95.5347 18.8438 95.5815C18.8379 95.6343 18.832 95.7222 18.8262 95.8452C18.8203 95.9683 18.8145 96.0972 18.8086 96.2319C18.8027 96.3667 18.7969 96.4956 18.791 96.6187C18.7852 96.7358 18.7822 96.8179 18.7822 96.8647V97.0933V97.6206C18.7764 97.6323 18.7705 97.6587 18.7646 97.6997C18.7588 97.7407 18.7529 97.7876 18.7471 97.8403C18.7471 97.8872 18.7441 97.9341 18.7383 97.981C18.7324 98.0278 18.7266 98.0601 18.7207 98.0776C18.6562 98.1245 18.5977 98.1597 18.5449 98.1831C18.498 98.2065 18.4395 98.2183 18.3691 98.2183C18.3223 98.2183 18.2783 98.2007 18.2373 98.1655C18.1963 98.1245 18.1582 98.0747 18.123 98.0161C18.0879 97.9575 18.0586 97.8989 18.0352 97.8403C18.0117 97.7759 17.9971 97.7173 17.9912 97.6646C17.9854 97.647 17.9766 97.6089 17.9648 97.5503C17.959 97.4858 17.9531 97.4185 17.9473 97.3481C17.9414 97.272 17.9355 97.2017 17.9297 97.1372C17.9238 97.0728 17.9209 97.0259 17.9209 96.9966C17.9033 96.9731 17.8711 96.9526 17.8242 96.9351C17.7832 96.9116 17.7422 96.8882 17.7012 96.8647C17.666 96.853 17.6104 96.8384 17.5342 96.8208C17.458 96.8032 17.376 96.7886 17.2881 96.7769C17.2061 96.7593 17.127 96.7476 17.0508 96.7417C16.9805 96.73 16.9336 96.7241 16.9102 96.7241C16.8926 96.7241 16.8604 96.7241 16.8135 96.7241C16.7725 96.7183 16.7227 96.7153 16.6641 96.7153C16.6113 96.7153 16.5586 96.7153 16.5059 96.7153C16.4531 96.7095 16.4121 96.7065 16.3828 96.7065C16.3652 96.7065 16.3359 96.7095 16.2949 96.7153C16.2598 96.7153 16.2217 96.7153 16.1807 96.7153C16.1455 96.7153 16.1133 96.7183 16.084 96.7241C16.0547 96.7241 16.0371 96.7241 16.0312 96.7241L15.9082 96.8647V97.1636C15.9082 97.5093 15.8965 97.8433 15.873 98.1655C15.8496 98.4819 15.8379 98.813 15.8379 99.1587C15.8379 99.3345 15.8525 99.4634 15.8818 99.5454C15.9111 99.6274 15.958 99.686 16.0225 99.7212C16.0869 99.7563 16.1689 99.7827 16.2686 99.8003C16.3682 99.8179 16.4912 99.8472 16.6377 99.8882C16.6494 99.8882 16.6699 99.897 16.6992 99.9146C16.7285 99.9321 16.749 99.9497 16.7607 99.9673H17.4463H18.0967C18.1084 99.9673 18.1348 99.9644 18.1758 99.9585C18.2168 99.9468 18.2607 99.938 18.3076 99.9321C18.3545 99.9204 18.3955 99.9116 18.4307 99.9058C18.4717 99.894 18.498 99.8882 18.5098 99.8882H18.9316H19.0986C19.1104 99.8882 19.1309 99.8794 19.1602 99.8618C19.1895 99.8384 19.2188 99.8149 19.248 99.7915C19.2832 99.7622 19.3125 99.7358 19.3359 99.7124C19.3594 99.689 19.374 99.6772 19.3799 99.6772C19.4209 99.6597 19.4531 99.6509 19.4766 99.6509C19.5059 99.645 19.5293 99.6421 19.5469 99.6421C19.5645 99.6362 19.582 99.6274 19.5996 99.6157C19.6172 99.5981 19.6348 99.5718 19.6523 99.5366C19.7168 99.4429 19.7637 99.3462 19.793 99.2466C19.8223 99.147 19.8604 99.0474 19.9072 98.9478C19.9307 98.9302 19.96 98.895 19.9951 98.8423C20.0303 98.7837 20.0508 98.7456 20.0566 98.728C20.0625 98.728 20.0801 98.7192 20.1094 98.7017C20.1387 98.6782 20.168 98.6548 20.1973 98.6313C20.2266 98.6021 20.2529 98.5757 20.2764 98.5522C20.2998 98.5229 20.3145 98.5024 20.3203 98.4907C20.3262 98.4731 20.3379 98.4497 20.3555 98.4204C20.3789 98.3853 20.4023 98.3501 20.4258 98.3149C20.4492 98.2739 20.4697 98.2388 20.4873 98.2095C20.5107 98.1743 20.5254 98.1509 20.5312 98.1392C20.5312 98.1333 20.54 98.1216 20.5576 98.104C20.5693 98.0981 20.5811 98.0894 20.5928 98.0776C20.5928 98.0659 20.5957 98.0601 20.6016 98.0601H20.6191C20.707 98.0601 20.7598 98.0952 20.7773 98.1655C20.7949 98.23 20.8037 98.2974 20.8037 98.3677V98.5522C20.8037 98.5815 20.8066 98.6519 20.8125 98.7632C20.8184 98.8745 20.8213 98.9946 20.8213 99.1235C20.8271 99.2466 20.833 99.3638 20.8389 99.4751C20.8447 99.5864 20.8477 99.6538 20.8477 99.6772V99.7036C20.8477 99.7798 20.833 99.8677 20.8037 99.9673C20.7744 100.061 20.7334 100.152 20.6807 100.24C20.6279 100.328 20.5635 100.401 20.4873 100.459C20.417 100.518 20.3408 100.55 20.2588 100.556C20.2178 100.55 20.1416 100.544 20.0303 100.539C19.9248 100.533 19.8105 100.527 19.6875 100.521C19.5645 100.515 19.4473 100.509 19.3359 100.503C19.2246 100.498 19.1455 100.489 19.0986 100.477H18.9316H18.7822C18.7529 100.489 18.6855 100.5 18.5801 100.512C18.4746 100.518 18.3604 100.524 18.2373 100.53C18.1201 100.536 18.0059 100.542 17.8945 100.547C17.7891 100.553 17.7246 100.556 17.7012 100.556H14.3701C14.3525 100.562 14.3232 100.568 14.2822 100.574C14.2471 100.58 14.2061 100.583 14.1592 100.583C14.1182 100.588 14.0771 100.591 14.0361 100.591C13.9951 100.597 13.9658 100.6 13.9482 100.6C13.9482 100.612 13.9277 100.618 13.8867 100.618C13.8457 100.618 13.8076 100.615 13.7725 100.609C13.7373 100.603 13.7139 100.6 13.7021 100.6C13.6787 100.618 13.6318 100.638 13.5615 100.662C13.4912 100.685 13.4414 100.697 13.4121 100.697C13.3828 100.697 13.333 100.691 13.2627 100.679C13.1982 100.667 13.1279 100.653 13.0518 100.635C12.9756 100.624 12.9023 100.609 12.832 100.591C12.7617 100.58 12.709 100.568 12.6738 100.556ZM24.293 97.0757C24.293 97.1577 24.3311 97.2163 24.4072 97.2515C24.4834 97.2866 24.5537 97.3042 24.6182 97.3042H25.084C25.1484 97.3042 25.2129 97.3071 25.2773 97.313C25.3418 97.3188 25.4062 97.3218 25.4707 97.3218C25.623 97.3218 25.7549 97.2983 25.8662 97.2515C25.9775 97.1987 26.0332 97.0845 26.0332 96.9087V96.7593C25.9805 96.4897 25.9014 96.2231 25.7959 95.9595C25.6904 95.6899 25.5908 95.4292 25.4971 95.1772C25.4854 95.1362 25.4678 95.0923 25.4443 95.0454C25.4268 94.9927 25.4033 94.9458 25.374 94.9048C25.3447 94.8579 25.3125 94.8198 25.2773 94.7905C25.2422 94.7612 25.2041 94.7466 25.1631 94.7466C25.0869 94.7466 25.0254 94.7788 24.9785 94.8433C24.9375 94.9077 24.9023 94.9839 24.873 95.0718C24.8496 95.1597 24.8291 95.2505 24.8115 95.3442C24.7939 95.4321 24.7734 95.5024 24.75 95.5552C24.7324 95.6079 24.7002 95.7017 24.6533 95.8364C24.6123 95.9712 24.5684 96.1147 24.5215 96.2671C24.4746 96.4136 24.4277 96.5542 24.3809 96.689C24.3398 96.8237 24.3105 96.9175 24.293 96.9702V97.0757ZM22.2451 100.512H22.2012C22.1895 100.512 22.1602 100.518 22.1133 100.53C22.0664 100.536 22.0137 100.544 21.9551 100.556C21.8965 100.562 21.8408 100.568 21.7881 100.574C21.7412 100.58 21.7119 100.583 21.7002 100.583H21.6475C21.6123 100.583 21.583 100.568 21.5596 100.539C21.5361 100.509 21.5186 100.477 21.5068 100.442C21.4951 100.401 21.4893 100.363 21.4893 100.328C21.4834 100.287 21.4805 100.26 21.4805 100.249V100.222C21.4805 100.117 21.5156 100.046 21.5859 100.011C21.6621 99.9761 21.7354 99.9438 21.8057 99.9146C21.8174 99.9146 21.8467 99.9058 21.8936 99.8882C21.9404 99.8647 21.9902 99.8413 22.043 99.8179C22.1016 99.7944 22.1543 99.7739 22.2012 99.7563C22.248 99.7329 22.2773 99.7153 22.2891 99.7036C22.2949 99.6978 22.3125 99.6831 22.3418 99.6597C22.3711 99.6304 22.4033 99.5981 22.4385 99.563C22.4736 99.5278 22.5059 99.4927 22.5352 99.4575C22.5703 99.4224 22.5996 99.3931 22.623 99.3696C22.6289 99.3579 22.6377 99.3433 22.6494 99.3257C22.6729 99.2905 22.6846 99.2642 22.6846 99.2466C22.6846 99.2349 22.6904 99.1997 22.7021 99.1411C22.7197 99.0825 22.7344 99.0474 22.7461 99.0356C22.9043 98.7192 23.0625 98.3999 23.2207 98.0776C23.3789 97.7495 23.5283 97.4214 23.6689 97.0933C23.6865 97.0757 23.71 97.0259 23.7393 96.9438C23.7744 96.856 23.7979 96.7944 23.8096 96.7593C23.8154 96.7476 23.8301 96.7124 23.8535 96.6538C23.877 96.5894 23.9004 96.5249 23.9238 96.4604C23.9473 96.3901 23.9678 96.3257 23.9854 96.2671C24.0088 96.2085 24.0205 96.1733 24.0205 96.1616C24.0264 96.144 24.0439 96.103 24.0732 96.0386C24.1084 95.9741 24.1436 95.9038 24.1787 95.8276C24.2197 95.7515 24.2549 95.6782 24.2842 95.6079C24.3193 95.5376 24.3428 95.4937 24.3545 95.4761C24.4014 95.3706 24.4453 95.2769 24.4863 95.1948C24.5332 95.1069 24.5771 95.0044 24.6182 94.8872C24.6416 94.8403 24.6709 94.7876 24.7061 94.729C24.7471 94.6704 24.7852 94.6089 24.8203 94.5444C24.8555 94.4741 24.8848 94.4067 24.9082 94.3423C24.9375 94.2778 24.9521 94.2163 24.9521 94.1577V94.0347C24.9521 94.0112 24.9434 93.9731 24.9258 93.9204C24.9141 93.8618 24.9082 93.8296 24.9082 93.8237C24.9082 93.7827 24.9316 93.73 24.9785 93.6655C25.0254 93.6011 25.0605 93.5601 25.084 93.5425C25.0957 93.5366 25.1221 93.5249 25.1631 93.5073C25.21 93.4897 25.2568 93.4692 25.3037 93.4458C25.3506 93.4224 25.3916 93.4019 25.4268 93.3843C25.4678 93.3667 25.4912 93.355 25.4971 93.3491C25.5088 93.3374 25.5322 93.314 25.5674 93.2788C25.6025 93.2437 25.6406 93.2056 25.6816 93.1646C25.7285 93.1177 25.7695 93.0737 25.8047 93.0327C25.8457 92.9858 25.875 92.9536 25.8926 92.936C25.8984 92.9302 25.9102 92.9126 25.9277 92.8833C25.9453 92.8481 25.9658 92.8159 25.9893 92.7866C26.0127 92.7515 26.0391 92.7222 26.0684 92.6987C26.0977 92.6694 26.1299 92.6577 26.165 92.6636C26.2236 92.6812 26.2734 92.7339 26.3145 92.8218C26.3613 92.9097 26.3994 93.0063 26.4287 93.1118C26.4639 93.2114 26.4932 93.311 26.5166 93.4106C26.54 93.5044 26.5605 93.5688 26.5781 93.604C26.584 93.6333 26.5928 93.6743 26.6045 93.7271C26.6221 93.7798 26.6367 93.8325 26.6484 93.8853C26.666 93.938 26.6807 93.9849 26.6924 94.0259C26.7041 94.0669 26.71 94.0903 26.71 94.0962C26.7158 94.1138 26.7246 94.1548 26.7363 94.2192C26.748 94.2837 26.7598 94.354 26.7715 94.4302C26.7891 94.5063 26.8037 94.5767 26.8154 94.6411C26.8271 94.6997 26.833 94.7349 26.833 94.7466C26.8389 94.7642 26.8535 94.8198 26.877 94.9136C26.9062 95.0073 26.9385 95.1157 26.9736 95.2388C27.0088 95.3618 27.0439 95.4849 27.0791 95.6079C27.1143 95.7251 27.1436 95.8188 27.167 95.8892C27.2139 96.0474 27.2725 96.2056 27.3428 96.3638C27.4131 96.5161 27.4658 96.6714 27.501 96.8296C27.5303 96.9644 27.5479 97.0728 27.5537 97.1548C27.5654 97.231 27.5947 97.3247 27.6416 97.436C27.6475 97.4478 27.6592 97.4741 27.6768 97.5151C27.7002 97.5503 27.7236 97.5913 27.7471 97.6382C27.7705 97.6792 27.791 97.7202 27.8086 97.7612C27.8262 97.8022 27.8379 97.8315 27.8438 97.8491C27.8438 97.8608 27.8467 97.8813 27.8525 97.9106C27.8584 97.9399 27.8643 97.9751 27.8701 98.0161C27.8818 98.0513 27.8906 98.0864 27.8965 98.1216C27.9023 98.1509 27.9082 98.1714 27.9141 98.1831C27.9141 98.189 27.9199 98.2095 27.9316 98.2446C27.9434 98.2739 27.958 98.3091 27.9756 98.3501C27.9932 98.3853 28.0078 98.4204 28.0195 98.4556C28.0371 98.4849 28.0488 98.4995 28.0547 98.4995C28.084 98.6519 28.1221 98.8159 28.1689 98.9917C28.2158 99.1675 28.2891 99.3228 28.3887 99.4575C28.4355 99.5278 28.5205 99.5864 28.6436 99.6333C28.7725 99.6802 28.9014 99.7271 29.0303 99.7739C29.165 99.8208 29.2822 99.8735 29.3818 99.9321C29.4814 99.9907 29.5312 100.067 29.5312 100.161C29.5312 100.26 29.5049 100.339 29.4521 100.398C29.4053 100.451 29.3438 100.492 29.2676 100.521C29.1914 100.55 29.1064 100.568 29.0127 100.574C28.9189 100.58 28.8311 100.583 28.749 100.583H28.5732H28.3887C28.2949 100.583 28.1309 100.58 27.8965 100.574C27.6621 100.568 27.4102 100.562 27.1406 100.556C26.877 100.544 26.625 100.536 26.3848 100.53C26.1504 100.518 25.9863 100.512 25.8926 100.512C25.8281 100.489 25.79 100.462 25.7783 100.433C25.7666 100.398 25.7607 100.348 25.7607 100.284V100.222C25.7607 100.21 25.7637 100.199 25.7695 100.187C25.8223 100.076 25.8955 100.002 25.9893 99.9673C26.083 99.9263 26.1797 99.894 26.2793 99.8706C26.3848 99.8472 26.4873 99.8208 26.5869 99.7915C26.6865 99.7563 26.7686 99.686 26.833 99.5806L26.8506 99.519L26.833 99.4575C26.8271 99.4048 26.8125 99.3315 26.7891 99.2378C26.7715 99.144 26.751 99.0503 26.7275 98.9565C26.71 98.8628 26.6924 98.7808 26.6748 98.7104C26.6572 98.6343 26.6455 98.5903 26.6396 98.5786C26.6279 98.5669 26.6104 98.5376 26.5869 98.4907C26.5635 98.4438 26.5371 98.3911 26.5078 98.3325C26.4844 98.2739 26.458 98.2183 26.4287 98.1655C26.4053 98.1069 26.3848 98.063 26.3672 98.0337C26.3027 97.9341 26.2119 97.8755 26.0947 97.8579C25.9834 97.8345 25.8721 97.8228 25.7607 97.8228H25.585C25.374 97.8228 25.1748 97.8374 24.9873 97.8667C24.8057 97.896 24.6123 97.9106 24.4072 97.9106C24.3662 97.9106 24.3252 97.9077 24.2842 97.9019C24.2432 97.896 24.2021 97.8931 24.1611 97.8931C24.1201 97.9341 24.0996 97.9663 24.0996 97.9897C24.0879 97.9956 24.0732 98.019 24.0557 98.0601C24.0439 98.0952 24.0293 98.1362 24.0117 98.1831C24 98.2241 23.9854 98.2651 23.9678 98.3062C23.9561 98.3413 23.9502 98.3618 23.9502 98.3677C23.9502 98.3794 23.9297 98.4146 23.8887 98.4731C23.8535 98.5317 23.8271 98.5669 23.8096 98.5786C23.7393 98.7251 23.6982 98.8774 23.6865 99.0356C23.6748 99.188 23.6689 99.3462 23.6689 99.5103C23.6689 99.604 23.6982 99.6743 23.7568 99.7212C23.8154 99.7622 23.8887 99.7944 23.9766 99.8179C24.0645 99.8413 24.1582 99.8618 24.2578 99.8794C24.3574 99.8911 24.4512 99.9116 24.5391 99.9409C24.627 99.9644 24.7002 100.002 24.7588 100.055C24.8174 100.108 24.8467 100.184 24.8467 100.284C24.8467 100.477 24.7559 100.597 24.5742 100.644C24.5508 100.644 24.5068 100.641 24.4424 100.635C24.3838 100.629 24.3223 100.624 24.2578 100.618C24.1934 100.612 24.1318 100.606 24.0732 100.6C24.0146 100.594 23.9736 100.588 23.9502 100.583H23.3262H23.0801C23.0625 100.583 23.0156 100.58 22.9395 100.574C22.8633 100.568 22.7783 100.562 22.6846 100.556C22.5908 100.544 22.5059 100.536 22.4297 100.53C22.3535 100.518 22.3066 100.512 22.2891 100.512H22.2451ZM31.1924 100.556C31.1807 100.556 31.1455 100.562 31.0869 100.574C31.0342 100.591 31.0049 100.6 30.999 100.6H30.9639C30.8877 100.6 30.8115 100.597 30.7354 100.591C30.665 100.585 30.6006 100.571 30.542 100.547C30.4893 100.524 30.4453 100.489 30.4102 100.442C30.375 100.395 30.3574 100.331 30.3574 100.249V100.117C30.3633 100.058 30.4336 100.017 30.5684 99.9937C30.709 99.9644 30.8643 99.9468 31.0342 99.9409C31.2041 99.9292 31.3652 99.9204 31.5176 99.9146C31.6699 99.9028 31.7607 99.8794 31.79 99.8442C31.7959 99.8149 31.8018 99.7886 31.8076 99.7651C31.8135 99.7417 31.8193 99.7212 31.8252 99.7036C31.8311 99.686 31.834 99.6714 31.834 99.6597C31.834 99.6362 31.8369 99.6011 31.8428 99.5542C31.8545 99.5015 31.8633 99.4487 31.8691 99.396C31.8809 99.3374 31.8896 99.2847 31.8955 99.2378C31.9014 99.1909 31.9043 99.1587 31.9043 99.1411C31.9043 99.0942 31.9072 98.9976 31.9131 98.8511C31.9189 98.6987 31.9248 98.5347 31.9307 98.3589C31.9365 98.1831 31.9424 98.0132 31.9482 97.8491C31.9541 97.6851 31.957 97.5679 31.957 97.4976C31.957 97.4683 31.957 97.4155 31.957 97.3394C31.9629 97.2573 31.9658 97.1694 31.9658 97.0757C31.9658 96.9819 31.9629 96.897 31.957 96.8208C31.957 96.7446 31.957 96.686 31.957 96.645L32.001 96.5308C32.001 96.5249 32.0039 96.4663 32.0098 96.355C32.0156 96.2378 32.0215 96.1001 32.0273 95.9419C32.0391 95.7837 32.0479 95.6226 32.0537 95.4585C32.0654 95.2944 32.0713 95.1597 32.0713 95.0542V94.4565V93.8325C32.0713 93.8091 32.0654 93.7739 32.0537 93.7271C32.0479 93.6802 32.042 93.6333 32.0361 93.5864C32.0303 93.5337 32.0215 93.4897 32.0098 93.4546C32.0039 93.4136 32.001 93.3872 32.001 93.3755C31.9717 93.2876 31.9131 93.2261 31.8252 93.1909C31.7432 93.1499 31.6436 93.1206 31.5264 93.103C31.415 93.0854 31.2949 93.0767 31.166 93.0767C31.043 93.0708 30.9287 93.0591 30.8232 93.0415C30.7178 93.0239 30.6299 92.9946 30.5596 92.9536C30.4951 92.9067 30.4629 92.8364 30.4629 92.7427C30.4629 92.6899 30.4805 92.6431 30.5156 92.6021C30.5508 92.5552 30.5918 92.5142 30.6387 92.479C30.6855 92.4438 30.7354 92.4175 30.7881 92.3999C30.8467 92.3765 30.8965 92.3647 30.9375 92.3647C31.0195 92.3647 31.1191 92.3765 31.2363 92.3999C31.3535 92.4233 31.4443 92.4292 31.5088 92.4175C31.5264 92.4175 31.5615 92.4146 31.6143 92.4087C31.667 92.4028 31.7227 92.397 31.7812 92.3911C31.8457 92.3853 31.9043 92.3794 31.957 92.3735C32.0156 92.3677 32.0537 92.3647 32.0713 92.3647C32.1006 92.3647 32.168 92.3677 32.2734 92.3735C32.3789 92.3794 32.4902 92.3853 32.6074 92.3911C32.7305 92.397 32.8447 92.4058 32.9502 92.4175C33.0557 92.4233 33.123 92.4292 33.1523 92.4351H33.2578H33.3369C33.3486 92.4292 33.375 92.4233 33.416 92.4175C33.457 92.4058 33.498 92.397 33.5391 92.3911C33.5859 92.3853 33.627 92.3794 33.6621 92.3735C33.7031 92.3677 33.7266 92.3647 33.7324 92.3647H34.1719C34.1777 92.3647 34.1982 92.3618 34.2334 92.356C34.2686 92.3501 34.3037 92.3442 34.3389 92.3384C34.3799 92.3325 34.415 92.3267 34.4443 92.3208C34.4795 92.3149 34.5 92.312 34.5059 92.312H34.541C34.5527 92.312 34.5615 92.312 34.5674 92.312C34.5791 92.3062 34.5908 92.3032 34.6025 92.3032C34.6729 92.3032 34.7432 92.3062 34.8135 92.312C34.8838 92.3179 34.9482 92.3325 35.0068 92.356C35.0654 92.3735 35.1123 92.4058 35.1475 92.4526C35.1885 92.4995 35.209 92.564 35.209 92.646C35.209 92.6636 35.2031 92.6899 35.1914 92.7251C35.1797 92.7544 35.1738 92.7749 35.1738 92.7866C35.127 92.8159 35.0537 92.8599 34.9541 92.9185C34.8545 92.9712 34.7725 93.0034 34.708 93.0151C34.6846 93.0151 34.6318 93.021 34.5498 93.0327C34.4736 93.0386 34.3916 93.0474 34.3037 93.0591C34.2158 93.0649 34.1338 93.0737 34.0576 93.0854C33.9814 93.0913 33.9346 93.0942 33.917 93.0942C33.8701 93.1001 33.8291 93.1206 33.7939 93.1558C33.7646 93.1851 33.7441 93.2231 33.7324 93.27C33.6797 93.5337 33.6445 93.7944 33.627 94.0522C33.6152 94.3101 33.6094 94.5737 33.6094 94.8433V95.687V95.9683C33.6094 95.9741 33.6035 96.0093 33.5918 96.0737C33.5859 96.1323 33.5771 96.1997 33.5654 96.2759C33.5596 96.3462 33.5508 96.4136 33.5391 96.478C33.5332 96.5425 33.5303 96.5835 33.5303 96.6011V97.937V98.4468C33.5303 98.4644 33.5273 98.5024 33.5215 98.561C33.5156 98.6196 33.5098 98.6812 33.5039 98.7456C33.498 98.8101 33.4922 98.8687 33.4863 98.9214C33.4805 98.9741 33.4775 99.0063 33.4775 99.0181V99.062V99.1411C33.4775 99.1528 33.4863 99.1851 33.5039 99.2378C33.5215 99.2847 33.5303 99.314 33.5303 99.3257C33.5303 99.3374 33.5215 99.3579 33.5039 99.3872C33.4863 99.4106 33.4775 99.4312 33.4775 99.4487C33.4717 99.4663 33.4688 99.4839 33.4688 99.5015C33.4629 99.5132 33.46 99.5278 33.46 99.5454C33.46 99.5571 33.46 99.5688 33.46 99.5806C33.46 99.6919 33.4922 99.7974 33.5566 99.897C33.627 99.9907 33.7148 100.038 33.8203 100.038H33.873C34.043 100.008 34.2188 99.9819 34.4004 99.9585C34.5879 99.9292 34.7666 99.9146 34.9365 99.9146H36.4219C36.4453 99.9146 36.4834 99.9116 36.5361 99.9058C36.5947 99.8999 36.6504 99.894 36.7031 99.8882C36.7559 99.8823 36.8027 99.8765 36.8438 99.8706C36.8848 99.8589 36.9082 99.8501 36.9141 99.8442C36.9258 99.8384 36.9492 99.8208 36.9844 99.7915C37.0195 99.7563 37.0576 99.7183 37.0986 99.6772C37.1455 99.6304 37.1865 99.5864 37.2217 99.5454C37.2627 99.5044 37.292 99.4722 37.3096 99.4487C37.3096 99.4429 37.3154 99.4282 37.3271 99.4048C37.3389 99.3755 37.3506 99.3491 37.3623 99.3257C37.374 99.2964 37.3857 99.27 37.3975 99.2466C37.4092 99.2231 37.418 99.2085 37.4238 99.2026C37.4238 99.1968 37.4326 99.188 37.4502 99.1763C37.4736 99.1587 37.4971 99.1411 37.5205 99.1235C37.5439 99.106 37.5645 99.0913 37.582 99.0796C37.6055 99.0679 37.6201 99.062 37.626 99.062L37.6699 99.0181C37.6816 99.0122 37.7051 98.98 37.7402 98.9214C37.7754 98.8569 37.793 98.8188 37.793 98.8071C37.8164 98.7837 37.8457 98.7485 37.8809 98.7017C37.9219 98.6489 37.9629 98.5962 38.0039 98.5435C38.0508 98.4849 38.0918 98.4321 38.127 98.3853C38.1621 98.3325 38.1885 98.2974 38.2061 98.2798C38.2295 98.2505 38.2441 98.2329 38.25 98.2271C38.2617 98.2212 38.291 98.2183 38.3379 98.2183C38.4316 98.2183 38.5049 98.2563 38.5576 98.3325C38.6104 98.4028 38.6484 98.4878 38.6719 98.5874C38.6953 98.687 38.707 98.7896 38.707 98.895C38.7129 98.9946 38.7158 99.0767 38.7158 99.1411C38.7158 99.1704 38.7158 99.2056 38.7158 99.2466C38.7158 99.2876 38.7158 99.3286 38.7158 99.3696C38.7158 99.4106 38.7129 99.4458 38.707 99.4751C38.707 99.5044 38.707 99.519 38.707 99.519C38.707 99.5308 38.6982 99.563 38.6807 99.6157C38.6631 99.6626 38.6543 99.6919 38.6543 99.7036C38.6426 99.8384 38.6367 99.9556 38.6367 100.055C38.6367 100.149 38.6221 100.231 38.5928 100.301C38.5693 100.372 38.5225 100.43 38.4521 100.477C38.3877 100.524 38.2793 100.565 38.127 100.6C38.0742 100.606 37.9775 100.609 37.8369 100.609C37.6963 100.615 37.5439 100.618 37.3799 100.618C37.2217 100.618 37.0693 100.618 36.9229 100.618C36.7822 100.618 36.6826 100.618 36.624 100.618C36.5186 100.618 36.3838 100.618 36.2197 100.618C36.0557 100.618 35.8945 100.618 35.7363 100.618C35.584 100.618 35.4492 100.615 35.332 100.609C35.2148 100.609 35.1533 100.606 35.1475 100.6C35.1182 100.6 35.0596 100.597 34.9717 100.591C34.8896 100.591 34.7959 100.588 34.6904 100.583C34.5908 100.583 34.4912 100.58 34.3916 100.574C34.2979 100.568 34.2246 100.562 34.1719 100.556C34.166 100.556 34.1484 100.553 34.1191 100.547C34.0898 100.542 34.0576 100.536 34.0225 100.53C33.9873 100.524 33.9551 100.518 33.9258 100.512C33.8965 100.506 33.8789 100.5 33.873 100.495H33.8203H33.7324C33.7031 100.5 33.6445 100.506 33.5566 100.512C33.4688 100.518 33.375 100.524 33.2754 100.53C33.1758 100.536 33.0791 100.542 32.9854 100.547C32.8975 100.553 32.8418 100.556 32.8184 100.556H32.2295C32.2178 100.556 32.1768 100.562 32.1064 100.574C32.042 100.591 32.0068 100.6 32.001 100.6C31.96 100.624 31.9102 100.635 31.8516 100.635C31.7988 100.641 31.7578 100.644 31.7285 100.644C31.7109 100.644 31.6758 100.638 31.623 100.626C31.5703 100.621 31.5117 100.612 31.4473 100.6C31.3887 100.588 31.333 100.577 31.2803 100.565C31.2275 100.559 31.1982 100.556 31.1924 100.556ZM40.4912 93.5952C40.4736 93.4839 40.4502 93.396 40.4209 93.3315C40.3916 93.2612 40.3535 93.2056 40.3066 93.1646C40.2598 93.1177 40.2012 93.0767 40.1309 93.0415C40.0605 93.0063 39.9727 92.9624 39.8672 92.9097C39.8027 92.8804 39.7354 92.8599 39.665 92.8481C39.6006 92.8306 39.5596 92.8159 39.542 92.8042C39.5068 92.7632 39.4805 92.7075 39.4629 92.6372C39.4453 92.561 39.4365 92.5054 39.4365 92.4702C39.4365 92.4585 39.4365 92.4351 39.4365 92.3999C39.4424 92.3589 39.457 92.3296 39.4805 92.312C39.4922 92.3062 39.5244 92.2974 39.5771 92.2856C39.6299 92.2739 39.6709 92.2622 39.7002 92.2505C39.7588 92.2446 39.8232 92.2388 39.8936 92.2329C39.9697 92.2271 40.04 92.2241 40.1045 92.2241C40.2041 92.2241 40.3066 92.2329 40.4121 92.2505C40.5176 92.2622 40.6553 92.2827 40.8252 92.312H41.1592C41.2705 92.312 41.376 92.312 41.4756 92.312C41.5752 92.312 41.6719 92.3091 41.7656 92.3032C41.8594 92.2974 41.9531 92.2915 42.0469 92.2856C42.1406 92.2798 42.2432 92.2681 42.3545 92.2505C42.3721 92.2505 42.4072 92.2417 42.46 92.2241C42.5127 92.2065 42.5449 92.1978 42.5566 92.1978H42.6182C42.7529 92.1978 42.876 92.2212 42.9873 92.2681C43.1045 92.3149 43.1631 92.4116 43.1631 92.5581C43.1631 92.6577 43.1279 92.7339 43.0576 92.7866C42.9873 92.8394 42.9023 92.8862 42.8027 92.9272C42.709 92.9683 42.6123 93.0093 42.5127 93.0503C42.4189 93.0854 42.3457 93.1353 42.293 93.1997C42.2344 93.2642 42.1875 93.3433 42.1523 93.437C42.1172 93.5249 42.0879 93.6216 42.0645 93.7271C42.0469 93.8267 42.0352 93.9263 42.0293 94.0259C42.0234 94.1255 42.0205 94.2134 42.0205 94.2896C42.0205 94.3833 42.0322 94.4595 42.0557 94.5181C42.085 94.5767 42.0996 94.647 42.0996 94.729C42.0996 94.7466 42.0967 94.7729 42.0908 94.8081C42.0908 94.8374 42.082 94.8579 42.0645 94.8696C42.0645 94.8813 42.0615 94.9136 42.0557 94.9663C42.0498 95.019 42.0439 95.0776 42.0381 95.1421C42.0381 95.2007 42.0352 95.2563 42.0293 95.3091C42.0234 95.3618 42.0205 95.397 42.0205 95.4146V96.188C42.0205 96.2173 42.0088 96.2671 41.9854 96.3374C41.9678 96.4077 41.9561 96.4546 41.9502 96.478V96.5747V96.6626C41.9502 96.6743 41.9531 96.7036 41.959 96.7505C41.9707 96.7974 41.9795 96.8472 41.9854 96.8999C41.9971 96.9526 42.0059 97.0024 42.0117 97.0493C42.0176 97.0962 42.0205 97.1255 42.0205 97.1372C42.0264 97.1665 42.0293 97.2192 42.0293 97.2954C42.0352 97.3657 42.041 97.4419 42.0469 97.5239C42.0527 97.6001 42.0557 97.6733 42.0557 97.7437C42.0615 97.814 42.0645 97.8638 42.0645 97.8931C42.0703 97.9399 42.082 98.0015 42.0996 98.0776C42.1172 98.1479 42.1348 98.2212 42.1523 98.2974C42.1758 98.3735 42.1992 98.4468 42.2227 98.5171C42.2461 98.5874 42.2695 98.6431 42.293 98.6841C42.3164 98.7427 42.3574 98.8159 42.416 98.9038C42.4805 98.9917 42.5508 99.0796 42.627 99.1675C42.7031 99.2495 42.7793 99.3228 42.8555 99.3872C42.9375 99.4517 43.0137 99.4927 43.084 99.5103C43.0957 99.5103 43.1221 99.522 43.1631 99.5454C43.2041 99.563 43.2393 99.5718 43.2686 99.5718C43.3096 99.5718 43.3301 99.5747 43.3301 99.5806C43.3945 99.5864 43.4531 99.6011 43.5059 99.6245C43.5586 99.6421 43.6084 99.6626 43.6553 99.686C43.7021 99.7036 43.752 99.7212 43.8047 99.7388C43.8574 99.7563 43.916 99.7651 43.9805 99.7651H44.1035C44.1094 99.7593 44.1299 99.7476 44.165 99.73C44.2002 99.7124 44.2354 99.6948 44.2705 99.6772C44.3115 99.6597 44.3467 99.645 44.376 99.6333C44.4111 99.6216 44.4316 99.6157 44.4375 99.6157H44.5781C44.6367 99.5981 44.6982 99.5806 44.7627 99.563C44.8096 99.5513 44.8594 99.5425 44.9121 99.5366C44.9648 99.5249 45.0059 99.5161 45.0352 99.5103C45.1934 99.4575 45.334 99.3608 45.457 99.2202C45.5859 99.0737 45.6885 98.9419 45.7646 98.8247C45.7705 98.813 45.7793 98.7866 45.791 98.7456C45.8086 98.7046 45.8232 98.6636 45.835 98.6226C45.8525 98.5757 45.8672 98.5317 45.8789 98.4907C45.8906 98.4497 45.8965 98.4233 45.8965 98.4116C45.9668 98.23 46.0195 98.0396 46.0547 97.8403C46.0898 97.6411 46.1133 97.439 46.125 97.2339C46.1367 97.0229 46.1455 96.8149 46.1514 96.6099C46.1572 96.4048 46.1689 96.2056 46.1865 96.0122C46.1865 96.0063 46.1895 95.9888 46.1953 95.9595C46.2012 95.9243 46.2041 95.8892 46.2041 95.854C46.21 95.813 46.2158 95.7778 46.2217 95.7485C46.2275 95.7134 46.2305 95.6899 46.2305 95.6782V95.3091V94.9136C46.2246 94.8667 46.2158 94.7817 46.2041 94.6587C46.1924 94.5356 46.1777 94.4038 46.1602 94.2632C46.1484 94.1226 46.1367 93.9907 46.125 93.8677C46.1191 93.7388 46.1162 93.6479 46.1162 93.5952C46.1045 93.5659 46.0811 93.5103 46.0459 93.4282C46.0107 93.3403 45.9814 93.2847 45.958 93.2612C45.9521 93.2319 45.9434 93.2026 45.9316 93.1733C45.9199 93.1382 45.9082 93.1206 45.8965 93.1206C45.8555 93.0796 45.8174 93.0591 45.7822 93.0591C45.7529 93.0591 45.7266 93.062 45.7031 93.0679C45.6855 93.0737 45.665 93.0767 45.6416 93.0767C45.6123 93.0767 45.5859 93.0708 45.5625 93.0591C45.416 93.0298 45.2812 92.9946 45.1582 92.9536C45.041 92.9126 44.9326 92.8276 44.833 92.6987C44.8213 92.6694 44.8125 92.6489 44.8066 92.6372C44.8066 92.6255 44.8066 92.5991 44.8066 92.5581C44.8066 92.5464 44.8096 92.5347 44.8154 92.5229C44.8213 92.5054 44.8271 92.4907 44.833 92.479C44.9268 92.3618 45.041 92.2915 45.1758 92.2681C45.3105 92.2388 45.4512 92.2241 45.5977 92.2241C45.7031 92.2241 45.8086 92.23 45.9141 92.2417C46.0195 92.2476 46.1221 92.2505 46.2217 92.2505C46.2686 92.2505 46.3359 92.2417 46.4238 92.2241C46.5176 92.2065 46.5967 92.1978 46.6611 92.1978H47.2061C47.2588 92.1978 47.3203 92.1948 47.3906 92.189C47.4668 92.1831 47.543 92.1802 47.6191 92.1802C47.7363 92.1802 47.8506 92.189 47.9619 92.2065C48.0732 92.2241 48.167 92.2593 48.2432 92.312C48.2549 92.3296 48.2607 92.3618 48.2607 92.4087C48.2666 92.4556 48.2695 92.4849 48.2695 92.4966C48.2695 92.6138 48.2402 92.7046 48.1816 92.769C48.1289 92.8276 48.0586 92.8745 47.9707 92.9097C47.8887 92.939 47.7979 92.9624 47.6982 92.98C47.6045 92.9976 47.5166 93.0239 47.4346 93.0591C47.3408 93.1001 47.2646 93.1646 47.2061 93.2524C47.1475 93.3403 47.1182 93.437 47.1182 93.5425C47.1182 93.6362 47.127 93.7183 47.1445 93.7886C47.168 93.8589 47.1797 93.9409 47.1797 94.0347V94.1841C47.1797 94.2017 47.168 94.2397 47.1445 94.2983C47.127 94.3569 47.1182 94.3892 47.1182 94.395V94.6147V95.1245C47.1123 95.189 47.1064 95.3003 47.1006 95.4585C47.0947 95.6167 47.0859 95.7866 47.0742 95.9683C47.0684 96.144 47.0625 96.311 47.0566 96.4692C47.0508 96.6274 47.0449 96.7388 47.0391 96.8032C47.0098 96.8618 46.9893 96.9204 46.9775 96.979C46.9658 97.0317 46.957 97.0874 46.9512 97.146C46.9453 97.1987 46.9395 97.2515 46.9336 97.3042C46.9336 97.3569 46.9248 97.4126 46.9072 97.4712C46.9014 97.4888 46.8926 97.521 46.8809 97.5679C46.8691 97.6089 46.8545 97.6558 46.8369 97.7085C46.8252 97.7612 46.8135 97.811 46.8018 97.8579C46.79 97.8989 46.7842 97.9253 46.7842 97.937C46.7725 97.9487 46.7637 97.978 46.7578 98.0249C46.752 98.0659 46.7461 98.1099 46.7402 98.1567C46.7402 98.1978 46.7344 98.2388 46.7227 98.2798C46.7168 98.3149 46.7109 98.3325 46.7051 98.3325C46.7051 98.3501 46.6846 98.3911 46.6436 98.4556C46.6025 98.5142 46.5791 98.5493 46.5732 98.561C46.5615 98.5728 46.541 98.6108 46.5117 98.6753C46.4824 98.7397 46.4473 98.8101 46.4062 98.8862C46.3711 98.9624 46.3359 99.0327 46.3008 99.0972C46.2656 99.1616 46.2422 99.2026 46.2305 99.2202C46.125 99.4194 45.9873 99.5981 45.8174 99.7563C45.6533 99.9146 45.4775 100.076 45.29 100.24C45.2666 100.257 45.2314 100.284 45.1846 100.319C45.1377 100.348 45.0879 100.38 45.0352 100.416C44.9883 100.451 44.9443 100.483 44.9033 100.512C44.8623 100.536 44.8389 100.55 44.833 100.556H44.5781C44.4668 100.568 44.3672 100.58 44.2793 100.591C44.1973 100.609 44.1152 100.624 44.0332 100.635C43.9512 100.653 43.8662 100.667 43.7783 100.679C43.6904 100.691 43.5908 100.697 43.4795 100.697H42.9521C42.8877 100.667 42.8203 100.647 42.75 100.635C42.6797 100.624 42.6094 100.612 42.5391 100.6C42.4746 100.594 42.4102 100.583 42.3457 100.565C42.2812 100.553 42.2197 100.53 42.1611 100.495C42.1436 100.489 42.1055 100.468 42.0469 100.433C41.9883 100.392 41.9209 100.345 41.8447 100.292C41.7744 100.24 41.7041 100.19 41.6338 100.143C41.5635 100.09 41.5107 100.046 41.4756 100.011L41.4141 99.9673C41.3672 99.8911 41.3174 99.8267 41.2646 99.7739C41.2119 99.7153 41.1592 99.6597 41.1064 99.6069C41.0537 99.5542 41.001 99.4985 40.9482 99.4399C40.9014 99.3755 40.8604 99.3022 40.8252 99.2202C40.7021 98.939 40.6143 98.6372 40.5615 98.3149C40.5146 97.9868 40.4912 97.6646 40.4912 97.3481C40.4854 97.2778 40.4795 97.1812 40.4736 97.0581C40.4736 96.9292 40.4736 96.7827 40.4736 96.6187C40.4736 96.4487 40.4736 96.2671 40.4736 96.0737C40.4736 95.8804 40.4736 95.6812 40.4736 95.4761C40.4736 95.2769 40.4736 95.0806 40.4736 94.8872C40.4736 94.6938 40.4736 94.5151 40.4736 94.3511C40.4736 94.1812 40.4736 94.0317 40.4736 93.9028C40.4795 93.7681 40.4854 93.6655 40.4912 93.5952ZM54.1318 93.5601C54.1787 93.5366 54.2109 93.4956 54.2285 93.437C54.2461 93.3784 54.2549 93.3198 54.2549 93.2612C54.2549 93.1382 54.208 93.0532 54.1143 93.0063C54.0264 92.9536 53.9268 92.9155 53.8154 92.8921C53.71 92.8628 53.6104 92.8335 53.5166 92.8042C53.4287 92.769 53.3848 92.7075 53.3848 92.6196C53.3848 92.5903 53.3965 92.5669 53.4199 92.5493C53.4434 92.5259 53.4727 92.5083 53.5078 92.4966C53.543 92.479 53.5781 92.4644 53.6133 92.4526C53.6543 92.4409 53.6895 92.4292 53.7188 92.4175C53.748 92.4058 53.7949 92.394 53.8594 92.3823C53.9297 92.3706 53.9707 92.3647 53.9824 92.3647H55.5293C55.6348 92.3179 55.7373 92.2915 55.8369 92.2856C55.9365 92.2739 56.0361 92.2681 56.1357 92.2681C56.2119 92.2681 56.2822 92.271 56.3467 92.2769C56.417 92.2769 56.4756 92.2856 56.5225 92.3032C56.5752 92.3208 56.6162 92.353 56.6455 92.3999C56.6748 92.4468 56.6895 92.5142 56.6895 92.6021C56.6895 92.7251 56.6543 92.8188 56.584 92.8833C56.5195 92.9478 56.4375 92.9976 56.3379 93.0327C56.2383 93.062 56.1328 93.0854 56.0215 93.103C55.916 93.1206 55.8223 93.1411 55.7402 93.1646C55.4766 93.2583 55.2422 93.3843 55.0371 93.5425C54.8379 93.6948 54.6475 93.8823 54.4658 94.105C54.4482 94.1226 54.416 94.1606 54.3691 94.2192C54.3223 94.272 54.2695 94.3306 54.2109 94.395C54.1582 94.4595 54.1084 94.521 54.0615 94.5796C54.0146 94.6323 53.9824 94.6675 53.9648 94.6851C53.9414 94.7144 53.915 94.7495 53.8857 94.7905C53.8564 94.8315 53.8213 94.8667 53.7803 94.896C53.7041 94.9604 53.6309 95.0425 53.5605 95.1421C53.4902 95.2417 53.4316 95.3384 53.3848 95.4321C53.3613 95.4731 53.3408 95.5112 53.3232 95.5464C53.3115 95.5815 53.3057 95.6284 53.3057 95.687C53.3057 95.8101 53.3379 95.939 53.4023 96.0737C53.4668 96.2085 53.5283 96.3345 53.5869 96.4517C53.6104 96.4868 53.6396 96.5396 53.6748 96.6099C53.71 96.6743 53.7451 96.7388 53.7803 96.8032C53.8154 96.8677 53.8447 96.9263 53.8682 96.979C53.8975 97.0317 53.915 97.064 53.9209 97.0757C53.9268 97.0874 53.9473 97.1226 53.9824 97.1812C54.0234 97.2339 54.0674 97.2954 54.1143 97.3657C54.1611 97.4302 54.2021 97.4917 54.2373 97.5503C54.2783 97.6089 54.3047 97.647 54.3164 97.6646L54.5273 98.0601C54.5977 98.2241 54.6709 98.3882 54.7471 98.5522C54.8232 98.7104 54.9053 98.8657 54.9932 99.0181C55.0811 99.1646 55.1807 99.3052 55.292 99.4399C55.4033 99.5747 55.5322 99.7036 55.6787 99.8267C55.7314 99.8677 55.7988 99.9028 55.8809 99.9321C55.9629 99.9556 56.042 99.9819 56.1182 100.011C56.2002 100.041 56.2676 100.082 56.3203 100.134C56.3789 100.181 56.4082 100.251 56.4082 100.345C56.4082 100.462 56.3701 100.536 56.2939 100.565C56.2236 100.6 56.1416 100.618 56.0479 100.618C55.9951 100.618 55.9395 100.615 55.8809 100.609C55.8281 100.603 55.7812 100.6 55.7402 100.6C55.7168 100.612 55.6582 100.621 55.5645 100.626C55.4707 100.638 55.3682 100.65 55.2568 100.662C55.1514 100.673 55.0518 100.682 54.958 100.688C54.8643 100.694 54.8057 100.697 54.7822 100.697H54.7383C54.7324 100.697 54.7119 100.694 54.6768 100.688C54.6416 100.682 54.6035 100.673 54.5625 100.662C54.5273 100.65 54.4893 100.638 54.4482 100.626C54.4131 100.621 54.3926 100.612 54.3867 100.6C54.3574 100.6 54.2959 100.597 54.2021 100.591C54.1143 100.585 54.0176 100.58 53.9121 100.574C53.8125 100.574 53.7188 100.571 53.6309 100.565C53.543 100.559 53.4873 100.556 53.4639 100.556C53.4404 100.556 53.3906 100.55 53.3145 100.539C53.2441 100.521 53.1973 100.506 53.1738 100.495V100.433C53.1738 100.339 53.1943 100.275 53.2354 100.24C53.2822 100.205 53.3291 100.175 53.376 100.152C53.4287 100.123 53.4756 100.087 53.5166 100.046C53.5635 100.005 53.5869 99.9321 53.5869 99.8267C53.5869 99.7681 53.5693 99.6743 53.5342 99.5454C53.499 99.4165 53.4492 99.2759 53.3848 99.1235C53.3262 98.9653 53.2588 98.8042 53.1826 98.6401C53.1123 98.4761 53.0361 98.3267 52.9541 98.1919C52.8779 98.0571 52.8047 97.9458 52.7344 97.8579C52.6641 97.77 52.6025 97.7261 52.5498 97.7261C52.4502 97.7261 52.3682 97.7554 52.3037 97.814C52.2393 97.8667 52.1836 97.9341 52.1367 98.0161C52.0898 98.0923 52.0488 98.1743 52.0137 98.2622C51.9785 98.3501 51.9434 98.4263 51.9082 98.4907C51.8906 98.52 51.8467 98.5903 51.7764 98.7017C51.7061 98.8071 51.627 98.9243 51.5391 99.0532C51.457 99.1821 51.3779 99.3022 51.3018 99.4136C51.2314 99.5249 51.1875 99.5923 51.1699 99.6157C51.1582 99.6216 51.1436 99.6421 51.126 99.6772C51.1143 99.7065 51.1025 99.7271 51.0908 99.7388V99.8003C51.0908 99.8823 51.126 99.9409 51.1963 99.9761C51.2666 100.011 51.3486 100.043 51.4424 100.073C51.5361 100.096 51.6299 100.128 51.7236 100.169C51.8232 100.205 51.8994 100.263 51.9521 100.345C51.9521 100.421 51.9316 100.474 51.8906 100.503C51.8555 100.527 51.8115 100.544 51.7588 100.556H49.2979C49.251 100.556 49.2217 100.539 49.21 100.503C49.2041 100.462 49.2012 100.433 49.2012 100.416V100.345C49.2715 100.263 49.3506 100.196 49.4385 100.143C49.5322 100.09 49.626 100.043 49.7197 100.002C49.8193 99.9614 49.9189 99.9233 50.0186 99.8882C50.1182 99.8472 50.2119 99.7974 50.2998 99.7388C50.3232 99.7153 50.3701 99.6714 50.4404 99.6069C50.5107 99.5366 50.584 99.4634 50.6602 99.3872C50.7422 99.311 50.8184 99.2378 50.8887 99.1675C50.9648 99.0972 51.0176 99.0474 51.0469 99.0181C51.1992 98.8423 51.3281 98.6606 51.4336 98.4731C51.5449 98.2798 51.6533 98.0835 51.7588 97.8843C51.7705 97.8667 51.7969 97.8403 51.8379 97.8052C51.8789 97.7642 51.9023 97.7378 51.9082 97.7261C51.9258 97.7026 51.9492 97.6704 51.9785 97.6294C52.0137 97.5825 52.043 97.5386 52.0664 97.4976C52.0957 97.4565 52.1191 97.4214 52.1367 97.3921C52.1602 97.3569 52.1719 97.3364 52.1719 97.3306C52.1719 97.3306 52.1719 97.3159 52.1719 97.2866C52.1777 97.2515 52.1807 97.2134 52.1807 97.1724C52.1865 97.1313 52.1895 97.0933 52.1895 97.0581C52.1953 97.0171 52.1982 96.9878 52.1982 96.9702C52.1982 96.9526 52.1953 96.9263 52.1895 96.8911C52.1895 96.856 52.1865 96.8179 52.1807 96.7769C52.1807 96.7358 52.1777 96.6978 52.1719 96.6626C52.1719 96.6216 52.1719 96.5952 52.1719 96.5835C52.0078 96.4839 51.8848 96.3696 51.8027 96.2407C51.7207 96.106 51.6445 95.9536 51.5742 95.7837C51.5684 95.7661 51.5508 95.7339 51.5215 95.687C51.4922 95.6401 51.4629 95.5933 51.4336 95.5464C51.4043 95.4937 51.375 95.4468 51.3457 95.4058C51.3223 95.3589 51.3076 95.3325 51.3018 95.3267C51.2783 95.2798 51.2432 95.2065 51.1963 95.1069C51.1553 95.0073 51.1201 94.937 51.0908 94.896C51.0791 94.8901 51.0674 94.8726 51.0557 94.8433C51.0439 94.8081 51.0322 94.7729 51.0205 94.7378C51.0088 94.7026 50.9971 94.6675 50.9854 94.6323C50.9795 94.5972 50.9736 94.5737 50.9678 94.562L50.9502 94.5444C50.9443 94.5386 50.9355 94.5356 50.9238 94.5356C50.918 94.5298 50.9121 94.521 50.9062 94.5093C50.8828 94.4917 50.8623 94.4741 50.8447 94.4565C50.7275 94.3101 50.6338 94.1577 50.5635 93.9995C50.499 93.8413 50.4111 93.6948 50.2998 93.5601C50.2236 93.4722 50.1445 93.396 50.0625 93.3315C49.9805 93.2612 49.8955 93.1968 49.8076 93.1382C49.7256 93.0796 49.6406 93.021 49.5527 92.9624C49.4648 92.9038 49.3799 92.8364 49.2979 92.7603C49.251 92.731 49.2217 92.6958 49.21 92.6548C49.2041 92.6079 49.2012 92.561 49.2012 92.5142C49.2012 92.4497 49.2158 92.4087 49.2451 92.3911C49.2744 92.3735 49.3213 92.3647 49.3857 92.3647H49.4209C49.4209 92.3647 49.4326 92.3677 49.4561 92.3735C49.4854 92.3794 49.5146 92.3853 49.5439 92.3911C49.5791 92.397 49.6084 92.4028 49.6318 92.4087C49.6611 92.4146 49.6816 92.4175 49.6934 92.4175H49.7373C50.1123 92.4175 50.4814 92.4058 50.8447 92.3823C51.2139 92.3589 51.583 92.3472 51.9521 92.3472C52.0928 92.3472 52.1953 92.3647 52.2598 92.3999C52.3301 92.4292 52.3652 92.5112 52.3652 92.646C52.3652 92.7632 52.3418 92.8452 52.2949 92.8921C52.248 92.9331 52.1953 92.9653 52.1367 92.9888C52.0781 93.0122 52.0254 93.0415 51.9785 93.0767C51.9316 93.1118 51.9082 93.1821 51.9082 93.2876C51.9082 93.3345 51.9258 93.396 51.9609 93.4722C51.9961 93.5425 52.0254 93.5923 52.0488 93.6216C52.0664 93.6509 52.1045 93.7241 52.1631 93.8413C52.2275 93.9526 52.2949 94.0757 52.3652 94.2104C52.4414 94.3394 52.5117 94.4595 52.5762 94.5708C52.6406 94.6821 52.6816 94.7524 52.6992 94.7817C52.7402 94.8403 52.7754 94.8872 52.8047 94.9224C52.8398 94.9575 52.8809 94.9751 52.9277 94.9751C52.998 94.9751 53.0771 94.9458 53.165 94.8872C53.2588 94.8228 53.3789 94.7349 53.5254 94.6235C53.584 94.5767 53.6426 94.5034 53.7012 94.4038C53.7656 94.2983 53.8242 94.1929 53.877 94.0874C53.9297 93.9761 53.9766 93.8706 54.0176 93.771C54.0645 93.6714 54.1025 93.6011 54.1318 93.5601ZM65.2764 100.539C65.2529 100.539 65.2178 100.542 65.1709 100.547C65.1299 100.547 65.0859 100.547 65.0391 100.547C64.998 100.547 64.96 100.55 64.9248 100.556C64.8896 100.556 64.8721 100.556 64.8721 100.556L64.6611 100.635L63.5801 100.574H61.2773C61.1895 100.544 61.1133 100.524 61.0488 100.512C60.9902 100.5 60.9199 100.495 60.8379 100.495C60.7734 100.495 60.7236 100.498 60.6885 100.503C60.6533 100.509 60.6064 100.527 60.5479 100.556C60.4893 100.556 60.3896 100.553 60.249 100.547C60.1143 100.542 59.9707 100.539 59.8184 100.539C59.666 100.539 59.5195 100.542 59.3789 100.547C59.2441 100.553 59.1533 100.556 59.1064 100.556C59.0889 100.556 59.0566 100.559 59.0098 100.565C58.9688 100.571 58.9219 100.574 58.8691 100.574C58.8223 100.58 58.7754 100.585 58.7285 100.591C58.6875 100.597 58.6611 100.6 58.6494 100.6C58.6318 100.606 58.6113 100.609 58.5879 100.609C58.5703 100.615 58.5527 100.618 58.5352 100.618C58.5234 100.618 58.5117 100.618 58.5 100.618C58.3418 100.618 58.2217 100.6 58.1396 100.565C58.0635 100.536 57.9961 100.442 57.9375 100.284C57.9141 100.284 57.9023 100.278 57.9023 100.266C57.8965 100.26 57.8965 100.251 57.9023 100.24C57.9023 100.193 57.917 100.143 57.9463 100.09C57.9814 100.032 58.0225 99.979 58.0693 99.9321C58.1221 99.8853 58.1748 99.8472 58.2275 99.8179C58.2861 99.7827 58.3418 99.7651 58.3945 99.7651H59.2295C59.2412 99.7651 59.2793 99.7329 59.3438 99.6685C59.4082 99.5981 59.4609 99.5454 59.502 99.5103C59.5137 99.4985 59.5254 99.4751 59.5371 99.4399C59.5547 99.3989 59.5635 99.3696 59.5635 99.3521C59.6338 99.0063 59.6748 98.6636 59.6865 98.3237C59.6982 97.9839 59.7041 97.6294 59.7041 97.2603C59.7041 97.231 59.7041 97.1665 59.7041 97.0669C59.71 96.9614 59.7129 96.8384 59.7129 96.6978C59.7188 96.5571 59.7246 96.4106 59.7305 96.2583C59.7363 96.1001 59.7393 95.9507 59.7393 95.8101C59.7451 95.6694 59.748 95.5493 59.748 95.4497C59.7539 95.3442 59.7568 95.2739 59.7568 95.2388V94.7642C59.7568 94.2954 59.748 93.8325 59.7305 93.3755C59.7129 92.9185 59.7041 92.4644 59.7041 92.0132V91.9517C59.7041 91.9341 59.707 91.8901 59.7129 91.8198C59.7188 91.7437 59.7246 91.6646 59.7305 91.5825C59.7363 91.5005 59.7422 91.4243 59.748 91.354C59.7539 91.2837 59.7568 91.2397 59.7568 91.2222C59.7627 91.1694 59.7686 91.0786 59.7744 90.9497C59.7803 90.8149 59.7861 90.6743 59.792 90.5278C59.7979 90.3755 59.8037 90.2349 59.8096 90.106C59.8154 89.9771 59.8184 89.8862 59.8184 89.8335C59.7891 89.7456 59.7715 89.6548 59.7656 89.561C59.7598 89.4614 59.751 89.3677 59.7393 89.2798C59.7275 89.186 59.7041 89.0981 59.6689 89.0161C59.6338 88.9341 59.5781 88.8638 59.502 88.8052C59.4668 88.7993 59.4053 88.7935 59.3174 88.7876C59.2295 88.7817 59.1357 88.7788 59.0361 88.7788C58.9424 88.7729 58.8516 88.7671 58.7637 88.7612C58.6758 88.7554 58.6172 88.7495 58.5879 88.7437C58.4941 88.7319 58.3916 88.7173 58.2803 88.6997C58.1689 88.6763 58.0664 88.644 57.9727 88.603C57.8789 88.5562 57.7998 88.4946 57.7354 88.4185C57.6768 88.3423 57.6475 88.2427 57.6475 88.1196L57.6826 88.1021C57.6943 88.0962 57.7031 88.0903 57.709 88.0845C57.7148 88.0786 57.7236 88.0757 57.7354 88.0757C57.876 87.9937 58.002 87.9409 58.1133 87.9175C58.2246 87.8882 58.3682 87.8735 58.5439 87.8735H58.5879C58.6055 87.8911 58.623 87.9058 58.6406 87.9175C58.6758 87.9409 58.6992 87.9526 58.7109 87.9526C59.0039 87.9761 59.2969 87.9937 59.5898 88.0054C59.8828 88.0112 60.1787 88.0142 60.4775 88.0142C60.7236 88.0142 60.9639 88.0112 61.1982 88.0054C61.4326 87.9995 61.6641 87.9966 61.8926 87.9966H63.835C63.8584 87.9966 63.8965 87.9937 63.9492 87.9878C64.002 87.9819 64.0576 87.979 64.1162 87.979C64.1807 87.9731 64.2422 87.9673 64.3008 87.9614C64.3594 87.9556 64.4033 87.9526 64.4326 87.9526H64.4941H64.5469C64.5645 87.9526 64.6055 87.9556 64.6699 87.9614C64.7344 87.9673 64.8047 87.9731 64.8809 87.979C64.957 87.979 65.0273 87.9819 65.0918 87.9878C65.1621 87.9937 65.2061 87.9966 65.2236 87.9966H66.2695C66.3164 88.0024 66.3838 88.0083 66.4717 88.0142C66.5654 88.02 66.6562 88.0259 66.7441 88.0317C66.8379 88.0376 66.9199 88.0464 66.9902 88.0581C67.0605 88.064 67.0986 88.0698 67.1045 88.0757C67.1104 88.0757 67.1338 88.0845 67.1748 88.1021C67.2158 88.1196 67.2598 88.1431 67.3066 88.1724C67.3594 88.1958 67.4092 88.2222 67.4561 88.2515C67.5088 88.2808 67.5498 88.3071 67.5791 88.3306C67.6377 88.3657 67.6846 88.4507 67.7197 88.5854C67.7607 88.7144 67.793 88.8579 67.8164 89.0161C67.8398 89.1743 67.8574 89.3296 67.8691 89.4819C67.8867 89.6343 67.9014 89.7515 67.9131 89.8335C67.9131 89.8628 67.916 89.9155 67.9219 89.9917C67.9336 90.062 67.9424 90.1382 67.9482 90.2202C67.9541 90.3022 67.96 90.3813 67.9658 90.4575C67.9717 90.5337 67.9746 90.5864 67.9746 90.6157V90.853V91.0991C67.9453 91.1519 67.9072 91.187 67.8604 91.2046C67.8135 91.2163 67.7637 91.2222 67.7109 91.2222H67.6494C67.585 91.1812 67.5381 91.1401 67.5088 91.0991C67.4795 91.0581 67.4561 91.0171 67.4385 90.9761C67.4209 90.9292 67.4033 90.8823 67.3857 90.8354C67.374 90.7886 67.3506 90.7388 67.3154 90.686C67.3154 90.6802 67.3037 90.6685 67.2803 90.6509C67.2627 90.6274 67.2422 90.604 67.2188 90.5806C67.1953 90.5571 67.1719 90.5366 67.1484 90.519C67.125 90.4956 67.1104 90.481 67.1045 90.4751C67.0225 90.3579 66.9404 90.2261 66.8584 90.0796C66.7822 89.9272 66.6914 89.7866 66.5859 89.6577C66.5801 89.646 66.5596 89.6255 66.5244 89.5962C66.4951 89.5669 66.4746 89.5405 66.4629 89.5171C66.457 89.5054 66.4365 89.4966 66.4014 89.4907C66.3662 89.479 66.3428 89.4673 66.3311 89.4556C66.2607 89.4087 66.2051 89.356 66.1641 89.2974C66.123 89.2388 66.0791 89.1831 66.0322 89.1304C65.9912 89.0718 65.9443 89.0161 65.8916 88.9634C65.8389 88.9106 65.7656 88.8667 65.6719 88.8315C65.625 88.8315 65.5342 88.8286 65.3994 88.8228C65.2705 88.811 65.1328 88.8022 64.9863 88.7964C64.8398 88.7847 64.6992 88.7759 64.5645 88.77C64.4355 88.7583 64.3447 88.7495 64.292 88.7437H63.835C63.8291 88.7437 63.8027 88.7407 63.7559 88.7349C63.7148 88.7231 63.668 88.7144 63.6152 88.7085C63.5625 88.6968 63.5127 88.688 63.4658 88.6821C63.4189 88.6704 63.3896 88.6646 63.3779 88.6646H63.2461H63.123C63.0996 88.6646 63.0469 88.6704 62.9648 88.6821C62.8887 88.688 62.8037 88.6968 62.71 88.7085C62.6221 88.7144 62.5371 88.7231 62.4551 88.7349C62.3789 88.7407 62.332 88.7437 62.3145 88.7437H61.7959C61.7725 88.7437 61.7461 88.7524 61.7168 88.77C61.6875 88.7817 61.6729 88.7935 61.6729 88.8052V89.895C61.667 90.0825 61.6406 90.2612 61.5938 90.4312C61.5469 90.6011 61.5234 90.7739 61.5234 90.9497C61.5234 91.2134 61.5352 91.48 61.5586 91.7495C61.5879 92.0132 61.6025 92.2827 61.6025 92.5581C61.6025 92.7456 61.5879 92.936 61.5586 93.1294C61.5352 93.3228 61.5234 93.522 61.5234 93.7271V93.7886C61.541 93.8062 61.5645 93.8325 61.5938 93.8677C61.623 93.897 61.6494 93.9116 61.6729 93.9116H61.8926H62.1211C62.1328 93.9116 62.1592 93.9087 62.2002 93.9028C62.2412 93.8911 62.2852 93.8823 62.332 93.8765C62.3789 93.8647 62.4199 93.856 62.4551 93.8501C62.4961 93.8384 62.5195 93.8325 62.5254 93.8325H63.3076C63.3486 93.8325 63.4219 93.8296 63.5273 93.8237C63.6387 93.8179 63.7529 93.8149 63.8701 93.8149C63.9932 93.8091 64.1074 93.8032 64.2129 93.7974C64.3184 93.7915 64.3916 93.7886 64.4326 93.7886C64.5205 93.7124 64.585 93.6011 64.626 93.4546C64.667 93.3022 64.708 93.1763 64.749 93.0767C64.7549 93.0591 64.7607 93.0181 64.7666 92.9536C64.7783 92.8833 64.79 92.8101 64.8018 92.7339C64.8135 92.6577 64.8252 92.5874 64.8369 92.5229C64.8486 92.4526 64.8604 92.4087 64.8721 92.3911C64.8721 92.3853 64.8779 92.3706 64.8896 92.3472C64.9072 92.3179 64.9248 92.2915 64.9424 92.2681C64.96 92.2388 64.9746 92.2124 64.9863 92.189C65.0039 92.1655 65.0156 92.1509 65.0215 92.145C65.0449 92.0688 65.0596 91.9868 65.0654 91.8989C65.0713 91.811 65.0859 91.7319 65.1094 91.6616C65.1328 91.5854 65.1709 91.5239 65.2236 91.4771C65.2764 91.4302 65.3613 91.4067 65.4785 91.4067C65.6074 91.4067 65.6924 91.436 65.7334 91.4946C65.7744 91.5532 65.7949 91.6499 65.7949 91.7847C65.7949 91.8315 65.792 91.8667 65.7861 91.8901C65.7803 91.9077 65.7686 91.9487 65.751 92.0132C65.751 92.019 65.748 92.0337 65.7422 92.0571C65.7363 92.0806 65.7334 92.1069 65.7334 92.1362C65.7334 92.1831 65.7363 92.2271 65.7422 92.2681C65.748 92.3032 65.751 92.3296 65.751 92.3472C65.7451 92.3823 65.7393 92.4556 65.7334 92.5669C65.7275 92.6782 65.7188 92.8071 65.707 92.9536C65.6953 93.1001 65.6836 93.2583 65.6719 93.4282C65.6602 93.5923 65.6484 93.7505 65.6367 93.9028C65.625 94.0493 65.6133 94.1782 65.6016 94.2896C65.5957 94.4009 65.5898 94.4771 65.584 94.5181C65.584 94.5298 65.5869 94.5854 65.5928 94.6851C65.5986 94.7788 65.6016 94.8755 65.6016 94.9751C65.6016 95.022 65.5957 95.0747 65.584 95.1333C65.5723 95.186 65.5635 95.2212 65.5576 95.2388C65.5576 95.2388 65.5518 95.2534 65.54 95.2827C65.5342 95.312 65.5254 95.3472 65.5137 95.3882C65.5078 95.4233 65.499 95.4585 65.4873 95.4937C65.4814 95.5229 65.4785 95.5435 65.4785 95.5552C65.4785 95.5728 65.4814 95.6138 65.4873 95.6782C65.4932 95.7427 65.499 95.813 65.5049 95.8892C65.5166 95.9595 65.5254 96.0269 65.5312 96.0913C65.5371 96.1499 65.54 96.188 65.54 96.2056C65.54 96.229 65.54 96.2642 65.54 96.311C65.5459 96.3521 65.5488 96.396 65.5488 96.4429C65.5488 96.4839 65.5488 96.5249 65.5488 96.5659C65.5547 96.6069 65.5576 96.6392 65.5576 96.6626C65.5576 96.7622 65.5459 96.853 65.5225 96.9351C65.5049 97.0171 65.4639 97.1079 65.3994 97.2075C65.3936 97.2368 65.3643 97.269 65.3115 97.3042C65.2646 97.3335 65.2354 97.3481 65.2236 97.3481C65.2119 97.3481 65.1797 97.3335 65.127 97.3042C65.0742 97.269 65.0391 97.2368 65.0215 97.2075C64.9219 97.1255 64.8516 97.0112 64.8105 96.8647C64.7754 96.7183 64.752 96.5601 64.7402 96.3901C64.7285 96.2144 64.7227 96.0356 64.7227 95.854C64.7227 95.6724 64.7109 95.5054 64.6875 95.353C64.6699 95.1948 64.6318 95.063 64.5732 94.9575C64.5146 94.8521 64.4209 94.7876 64.292 94.7642C64.2451 94.7759 64.1719 94.7817 64.0723 94.7817C63.9727 94.7817 63.8643 94.7817 63.7471 94.7817C63.624 94.7817 63.5068 94.7817 63.3955 94.7817C63.29 94.7817 63.2197 94.7759 63.1846 94.7642C63.1553 94.7642 63.1084 94.7612 63.0439 94.7554C62.9795 94.7495 62.9121 94.7466 62.8418 94.7466C62.7773 94.7407 62.7129 94.7349 62.6484 94.729C62.5898 94.7231 62.5488 94.7202 62.5254 94.7202C62.5195 94.7026 62.4961 94.6821 62.4551 94.6587C62.4141 94.6353 62.3877 94.6235 62.376 94.6235H62.2881C62.1357 94.6235 61.9893 94.6616 61.8486 94.7378C61.7139 94.8081 61.6318 94.9224 61.6025 95.0806C61.5967 95.1216 61.582 95.2036 61.5586 95.3267C61.541 95.4438 61.5205 95.5728 61.4971 95.7134C61.4795 95.854 61.459 95.9917 61.4355 96.1265C61.418 96.2554 61.4062 96.3521 61.4004 96.4165V96.4692V96.5308C61.4004 96.5776 61.4033 96.6538 61.4092 96.7593C61.415 96.8647 61.4209 96.979 61.4268 97.1021C61.4326 97.2192 61.4385 97.3335 61.4443 97.4448C61.4561 97.5503 61.4619 97.6235 61.4619 97.6646C61.4912 97.7114 61.5088 97.7466 61.5146 97.77C61.5205 97.7935 61.5234 97.8198 61.5234 97.8491C61.5234 98.0776 61.5117 98.3003 61.4883 98.5171C61.4648 98.7339 61.4531 98.9624 61.4531 99.2026C61.4531 99.2261 61.4531 99.2759 61.4531 99.3521C61.459 99.4282 61.4619 99.481 61.4619 99.5103C61.4678 99.522 61.4824 99.5425 61.5059 99.5718C61.5293 99.5952 61.5527 99.6216 61.5762 99.6509C61.6055 99.6743 61.6348 99.6978 61.6641 99.7212C61.6934 99.7446 61.7139 99.7593 61.7256 99.7651C61.7314 99.7769 61.7578 99.7856 61.8047 99.7915C61.8574 99.7974 61.916 99.8032 61.9805 99.8091C62.0449 99.8091 62.1064 99.8149 62.165 99.8267C62.2295 99.8325 62.2793 99.8384 62.3145 99.8442C62.3848 99.8442 62.5049 99.8472 62.6748 99.853C62.8506 99.8589 63.0352 99.8647 63.2285 99.8706C63.4277 99.8765 63.6123 99.8823 63.7822 99.8882C63.958 99.8882 64.0811 99.8882 64.1514 99.8882C64.2217 99.9175 64.292 99.938 64.3623 99.9497C64.4385 99.9614 64.5117 99.9673 64.582 99.9673H64.8281H65.2236C65.2295 99.9673 65.25 99.9644 65.2852 99.9585C65.3203 99.9468 65.3584 99.938 65.3994 99.9321C65.4463 99.9204 65.4873 99.9116 65.5225 99.9058C65.5576 99.894 65.5781 99.8882 65.584 99.8882H67.2539C67.3184 99.8706 67.3799 99.8384 67.4385 99.7915C67.4971 99.7388 67.5527 99.6831 67.6055 99.6245C67.6582 99.5601 67.7051 99.4956 67.7461 99.4312C67.7871 99.3608 67.8223 99.2993 67.8516 99.2466C67.8691 99.229 67.8926 99.188 67.9219 99.1235C67.957 99.0591 67.9893 98.9917 68.0186 98.9214C68.0537 98.8452 68.0859 98.7749 68.1152 98.7104C68.1445 98.646 68.1621 98.6079 68.168 98.5962C68.1797 98.5786 68.2061 98.5435 68.2471 98.4907C68.2881 98.438 68.3086 98.4058 68.3086 98.394C68.3145 98.3823 68.3262 98.3501 68.3438 98.2974C68.3613 98.2446 68.3701 98.2124 68.3701 98.2007C68.376 98.1948 68.3906 98.1772 68.4141 98.1479C68.4434 98.1187 68.4727 98.0894 68.502 98.0601C68.5312 98.0308 68.5576 98.0015 68.5811 97.9722C68.6045 97.9429 68.6191 97.9224 68.625 97.9106C68.6309 97.9048 68.6426 97.8872 68.6602 97.8579C68.6836 97.8228 68.7041 97.7847 68.7217 97.7437C68.7451 97.6968 68.7627 97.6558 68.7744 97.6206C68.792 97.5796 68.8037 97.5532 68.8096 97.5415C68.8213 97.5181 68.8535 97.4829 68.9062 97.436C68.9648 97.3892 68.9971 97.3599 69.0029 97.3481C69.0146 97.3364 69.0293 97.3276 69.0469 97.3218C69.0645 97.3101 69.0791 97.2983 69.0908 97.2866C69.1084 97.2749 69.126 97.2661 69.1436 97.2603C69.167 97.272 69.2021 97.3013 69.249 97.3481C69.2959 97.395 69.3311 97.4302 69.3545 97.4536V97.4976C69.3545 97.5679 69.3428 97.6353 69.3193 97.6997C69.3018 97.7642 69.293 97.8286 69.293 97.8931C69.293 97.9751 69.3018 98.0483 69.3193 98.1128C69.3428 98.1714 69.3545 98.2417 69.3545 98.3237V98.394C69.3545 98.4116 69.3428 98.4438 69.3193 98.4907C69.3018 98.5376 69.293 98.5728 69.293 98.5962V99.6245C69.2871 99.6948 69.2783 99.7856 69.2666 99.897C69.2549 100.002 69.2314 100.105 69.1963 100.205C69.1611 100.298 69.1113 100.38 69.0469 100.451C68.9824 100.521 68.8975 100.556 68.792 100.556H68.748C68.7305 100.55 68.7012 100.544 68.6602 100.539C68.6191 100.533 68.5781 100.527 68.5371 100.521C68.4961 100.515 68.458 100.509 68.4229 100.503C68.3936 100.498 68.376 100.495 68.3701 100.495L68.3174 100.459C68.2822 100.436 68.2646 100.421 68.2646 100.416H68.2119H68.168C67.9629 100.486 67.7695 100.521 67.5879 100.521C67.4062 100.521 67.2158 100.533 67.0166 100.556C66.999 100.556 66.9668 100.559 66.9199 100.565C66.873 100.571 66.8203 100.577 66.7617 100.583C66.709 100.594 66.6592 100.606 66.6123 100.618C66.5654 100.629 66.5361 100.638 66.5244 100.644H66.4805C66.375 100.644 66.2754 100.629 66.1816 100.6C66.0938 100.571 65.9912 100.556 65.874 100.556C65.8623 100.556 65.8301 100.556 65.7773 100.556C65.7305 100.55 65.6748 100.547 65.6104 100.547C65.5518 100.547 65.4902 100.547 65.4258 100.547C65.3672 100.542 65.3174 100.539 65.2764 100.539Z" fill="#151618"/>
</svg>
